<svg width="305" height="273" viewBox="0 0 305 273" fill="none" xmlns="http://www.w3.org/2000/svg">
<path d="M155.99 121.053C156.044 121.053 156.097 121.038 156.143 121.012C156.19 120.985 156.229 120.946 156.256 120.9C156.283 120.853 156.298 120.801 156.299 120.747C156.299 120.693 156.286 120.64 156.26 120.593L122.63 62.3228C122.456 62.0217 122.365 61.6796 122.365 61.3305C122.365 60.9814 122.456 60.6374 122.63 60.3328L156.15 2.23284C156.19 2.16215 156.248 2.10335 156.319 2.06245C156.389 2.02155 156.469 2 156.55 2C156.631 2 156.711 2.02155 156.781 2.06245C156.852 2.10335 156.91 2.16215 156.95 2.23284C167.803 21.0595 196.28 70.4262 242.38 150.333C242.593 150.693 242.57 151.043 242.31 151.383C242.223 151.496 236.707 161.116 225.76 180.243C225.54 180.623 225.213 180.813 224.78 180.813H191.52C191.16 180.806 190.89 180.65 190.71 180.343L156.96 121.813C156.918 121.74 156.857 121.68 156.784 121.638C156.712 121.596 156.629 121.574 156.545 121.574C156.461 121.574 156.378 121.596 156.306 121.638C156.233 121.68 156.172 121.74 156.13 121.813L122.37 180.293C122.177 180.633 121.883 180.803 121.49 180.803H88.04C87.9218 180.803 87.8051 180.77 87.7015 180.709C87.5979 180.648 87.5112 180.559 87.45 180.453L70.65 151.323C70.5736 151.192 70.5334 151.043 70.5334 150.891C70.5334 150.738 70.5736 150.587 70.65 150.453L87.35 121.423C87.4966 121.163 87.7166 121.033 88.01 121.033L155.99 121.053Z" fill="black"/>
<path d="M266.84 237.623C267.74 238.209 268.733 238.593 269.82 238.773C278.06 240.143 287.45 240.643 295.05 244.283C300.37 246.823 303.05 252.333 301.58 258.033C299.76 265.083 292.25 268.613 285.6 269.703C273.813 271.623 261.797 270.526 249.55 266.413C249.157 266.279 248.96 266.006 248.96 265.593V254.113C248.961 254.018 248.985 253.925 249.031 253.842C249.076 253.759 249.141 253.688 249.22 253.636C249.299 253.584 249.389 253.551 249.483 253.542C249.577 253.533 249.672 253.547 249.76 253.583C258.76 257.423 267.957 259.289 277.35 259.183C279.457 259.156 281.41 258.783 283.21 258.063C283.712 257.861 284.138 257.508 284.428 257.055C284.719 256.601 284.859 256.069 284.83 255.533C284.68 252.833 278.57 252.233 276.51 251.983C271.437 251.383 266.703 250.609 262.31 249.663C256.25 248.353 249.72 245.263 248.79 238.433C247.49 228.893 256.9 223.773 264.67 222.293C275.57 220.206 286.57 221.049 297.67 224.823C297.801 224.867 297.914 224.951 297.995 225.064C298.076 225.177 298.119 225.313 298.12 225.453L298.1 237.063C298.1 237.523 297.887 237.663 297.46 237.483C290.86 234.616 283.87 232.976 276.49 232.563C273.73 232.413 267.34 232.333 266.1 235.183C265.916 235.613 265.889 236.094 266.024 236.54C266.16 236.987 266.449 237.371 266.84 237.623Z" fill="black"/>
<path d="M50.24 259.623H25.39C25.313 259.623 25.2373 259.643 25.1706 259.682C25.1039 259.72 25.0486 259.776 25.01 259.843L19.74 269.043C19.7015 269.109 19.6461 269.165 19.5794 269.203C19.5128 269.242 19.4371 269.262 19.36 269.263L2.80003 269.313C2.72289 269.312 2.64714 269.292 2.5804 269.253C2.51366 269.215 2.45826 269.159 2.41977 269.092C2.38128 269.025 2.36104 268.949 2.36108 268.872C2.36113 268.795 2.38146 268.719 2.42003 268.653L28.94 222.623C28.9786 222.556 29.0339 222.5 29.1006 222.462C29.1673 222.423 29.243 222.403 29.32 222.403L46.31 222.393C46.3871 222.393 46.4627 222.413 46.5294 222.452C46.5961 222.49 46.6515 222.546 46.69 222.613L73.22 268.633C73.2586 268.699 73.2789 268.775 73.279 268.852C73.279 268.929 73.2588 269.005 73.2203 269.072C73.1818 269.139 73.1264 269.195 73.0597 269.233C72.9929 269.272 72.9172 269.292 72.84 269.293L56.3 269.263C56.223 269.262 56.1473 269.242 56.0806 269.203C56.0139 269.165 55.9586 269.109 55.92 269.043L50.62 259.843C50.5815 259.776 50.5261 259.72 50.4594 259.682C50.3928 259.643 50.3171 259.623 50.24 259.623ZM43.81 249.093C43.8691 249.094 43.9273 249.079 43.9788 249.05C44.0303 249.021 44.0731 248.979 44.1027 248.928C44.1323 248.877 44.1477 248.819 44.1472 248.76C44.1468 248.701 44.1305 248.643 44.1 248.593L38.08 238.173C38.051 238.123 38.0094 238.081 37.9594 238.053C37.9094 238.024 37.8527 238.009 37.795 238.009C37.7374 238.009 37.6807 238.024 37.6307 238.053C37.5807 238.081 37.5391 238.123 37.51 238.173L31.51 248.583C31.4801 248.632 31.4638 248.689 31.4629 248.748C31.462 248.806 31.4765 248.863 31.5049 248.914C31.5334 248.965 31.5747 249.007 31.6248 249.037C31.6748 249.066 31.7319 249.082 31.79 249.083L43.81 249.093Z" fill="black"/>
<path d="M122.44 222.413L138.03 222.403C138.118 222.403 138.202 222.438 138.263 222.499C138.325 222.561 138.36 222.645 138.36 222.733L138.37 268.943C138.37 269.03 138.335 269.114 138.273 269.176C138.212 269.238 138.128 269.273 138.04 269.273H121.41C121.363 269.273 121.316 269.264 121.273 269.245C121.23 269.226 121.192 269.198 121.16 269.163L96.7601 242.463C96.7159 242.411 96.6569 242.375 96.5913 242.358C96.5256 242.342 96.4564 242.346 96.393 242.37C96.3297 242.394 96.2753 242.437 96.2372 242.493C96.1991 242.549 96.1792 242.615 96.1801 242.683L96.2501 268.943C96.2501 269.03 96.2153 269.114 96.1535 269.176C96.0916 269.238 96.0076 269.273 95.9201 269.273H80.2001C80.1126 269.273 80.0287 269.238 79.9668 269.176C79.9049 269.114 79.8701 269.03 79.8701 268.943L79.8901 222.733C79.8901 222.645 79.9249 222.561 79.9868 222.499C80.0487 222.438 80.1326 222.403 80.2201 222.403L97.4801 222.423C97.5272 222.422 97.5739 222.432 97.617 222.451C97.6601 222.47 97.6987 222.498 97.7301 222.533L121.58 248.573C121.625 248.621 121.683 248.654 121.747 248.668C121.811 248.683 121.878 248.678 121.939 248.654C122 248.631 122.053 248.589 122.09 248.536C122.128 248.482 122.149 248.418 122.15 248.353L122.11 222.743C122.11 222.655 122.145 222.571 122.207 222.509C122.269 222.448 122.353 222.413 122.44 222.413Z" fill="black"/>
<path d="M151.04 222.983C151.04 222.842 151.096 222.707 151.195 222.608C151.295 222.508 151.429 222.453 151.57 222.453H185.21C191.785 222.453 198.09 224.756 202.739 228.855C207.388 232.955 210 238.515 210 244.313V247.353C210 250.223 209.359 253.066 208.113 255.718C206.867 258.37 205.041 260.78 202.739 262.81C200.437 264.84 197.704 266.45 194.697 267.549C191.689 268.647 188.466 269.213 185.21 269.213H151.57C151.429 269.213 151.295 269.157 151.195 269.057C151.096 268.958 151.04 268.823 151.04 268.683V222.983ZM168.03 234.473L168.07 257.333C168.07 257.376 168.079 257.419 168.095 257.459C168.112 257.499 168.136 257.535 168.167 257.566C168.197 257.597 168.234 257.621 168.274 257.638C168.314 257.654 168.357 257.663 168.4 257.663L181.62 257.643C184.582 257.637 187.421 256.547 189.512 254.611C191.603 252.676 192.775 250.054 192.77 247.323V244.403C192.768 243.05 192.476 241.711 191.913 240.462C191.349 239.213 190.524 238.079 189.485 237.125C188.446 236.17 187.213 235.414 185.856 234.899C184.5 234.384 183.047 234.12 181.58 234.123L168.36 234.143C168.273 234.143 168.189 234.177 168.127 234.239C168.065 234.301 168.03 234.385 168.03 234.473Z" fill="black"/>
<path d="M236.04 268.733C236.04 268.876 235.983 269.013 235.882 269.114C235.781 269.216 235.643 269.273 235.5 269.273H219.48C219.337 269.273 219.199 269.216 219.098 269.114C218.997 269.013 218.94 268.876 218.94 268.733V222.933C218.94 222.789 218.997 222.652 219.098 222.551C219.199 222.449 219.337 222.393 219.48 222.393H235.5C235.643 222.393 235.781 222.449 235.882 222.551C235.983 222.652 236.04 222.789 236.04 222.933V268.733Z" fill="black"/>
</svg>
