<svg width="337" height="80" viewBox="0 0 337 80" fill="none" xmlns="http://www.w3.org/2000/svg">
<g clip-path="url(#clip0_696_758)">
<path d="M228.6 27.4274C227.453 29.5541 226.287 31.5641 225.1 33.4574C224.327 34.7041 224.38 35.8374 225.26 36.8574C225.607 37.2574 225.513 37.4574 224.98 37.4574L217.97 37.4674C217.263 37.4674 217.223 37.3041 217.85 36.9774C219.457 36.1241 220.667 35.0274 221.48 33.6874C224.64 28.4807 227.403 23.7441 229.77 19.4774C231.363 16.6041 233.013 13.7574 234.72 10.9374C236.087 8.69739 237.46 6.25406 238.84 3.60739C239.34 2.65739 240.23 2.2874 240.52 1.1474C240.887 -0.312601 241.423 -0.37928 242.13 0.947387C242.857 2.29405 243.623 3.5474 244.43 4.7074C245.217 5.83406 245.987 7.04072 246.74 8.32739C247.847 10.2341 248.993 12.0974 250.18 13.9174C254.233 20.1507 258.31 26.6674 262.41 33.4674C263.22 34.8174 264.53 36.0674 265.9 36.8674C266.567 37.2607 266.513 37.4574 265.74 37.4574L257.31 37.4674C256.57 37.4674 256.523 37.2841 257.17 36.9174L257.5 36.7274C257.767 36.5741 257.93 36.3474 257.99 36.0474C258.117 35.4074 257.903 34.9274 257.35 34.6074C257.248 34.5454 257.164 34.4589 257.105 34.3558C257.045 34.2527 257.013 34.1364 257.01 34.0174C257.01 33.3841 256.803 32.8074 256.39 32.2874C255.13 30.7141 254.127 29.0707 253.38 27.3574C253.31 27.1917 253.191 27.0504 253.04 26.9508C252.889 26.8513 252.712 26.798 252.53 26.7974H229.65C229.177 26.7974 228.827 27.0074 228.6 27.4274ZM240.56 7.22739C240.532 7.18002 240.492 7.14093 240.444 7.11409C240.396 7.08725 240.342 7.07363 240.287 7.07465C240.232 7.07566 240.178 7.09128 240.132 7.11987C240.085 7.14847 240.046 7.18903 240.02 7.2374L230.94 23.4874C230.914 23.5345 230.901 23.5876 230.901 23.6414C230.902 23.6952 230.917 23.7479 230.944 23.7943C230.971 23.8407 231.01 23.8793 231.057 23.9061C231.103 23.9329 231.156 23.9472 231.21 23.9474L250.31 23.9574C250.364 23.9564 250.418 23.9411 250.464 23.9131C250.511 23.885 250.549 23.8451 250.576 23.7975C250.602 23.7499 250.615 23.6961 250.614 23.6417C250.613 23.5872 250.598 23.534 250.57 23.4874L240.56 7.22739Z" fill="black"/>
<path d="M25.62 36.1775C24.52 35.6641 23.51 35.1208 22.59 34.5475C20.7433 33.4008 19.0833 31.7308 17.61 29.5375C16.31 27.5908 15.4467 25.5041 15.02 23.2775C13.5533 15.6241 15.93 9.28415 22.15 4.25748C23.86 2.87748 25.87 2.48748 27.85 1.64748C32.45 -0.312519 39.1 0.257476 43.71 1.76748C45.1033 2.22081 46.5233 2.66747 47.97 3.10747C48.2833 3.20747 48.4533 3.4208 48.48 3.74747L48.9 9.66747C48.96 10.5141 48.7533 10.5875 48.28 9.88747C47.4933 8.7208 46.53 7.6308 45.39 6.61747C44.51 5.8308 43.49 5.23081 42.33 4.81748C40.71 4.23748 39.24 3.43748 37.49 3.20748C33.55 2.68748 30.0533 3.44081 27 5.46747C25.28 6.60747 23.7633 8.11414 22.45 9.98748C19.7 13.9175 19.4 18.6275 20.15 23.1675C20.4833 25.1808 21.3333 27.0808 22.7 28.8675C26.9733 34.4675 32.78 36.4941 40.12 34.9475C42.03 34.5475 43.56 33.4975 45.15 32.4275C46.0367 31.8275 46.85 31.0575 47.59 30.1175C48.21 29.3375 48.7533 28.5575 49.22 27.7775C49.58 27.1708 49.77 27.2208 49.79 27.9275C49.8367 30.0741 49.8033 32.2808 49.69 34.5475C49.6633 35.1008 49.3767 35.3541 48.83 35.3075C48.49 35.2808 48.16 35.3341 47.84 35.4675C45.95 36.2775 43.98 37.1375 41.93 37.4075C37.5033 37.9808 33.3367 37.9741 29.43 37.3875C28.2167 37.2008 26.9467 36.7975 25.62 36.1775Z" fill="black"/>
<path d="M62.17 34.0977C66.2967 34.0044 70.67 33.9844 75.29 34.0377C77.8 34.0577 79.41 32.8577 81.26 31.4377C81.7467 31.0644 81.9 31.171 81.72 31.7577C81.0867 33.851 80.2834 35.9577 79.31 38.0777C79.1567 38.4044 78.9367 38.461 78.65 38.2477C77.9767 37.761 77.2234 37.5144 76.39 37.5077C69.3234 37.461 62.1434 37.4444 54.85 37.4577C54.2234 37.4577 54.17 37.2877 54.69 36.9477C56.2 35.9577 57.12 35.0277 57.11 33.0577C57.0567 24.1377 57.0334 15.601 57.04 7.44769C57.04 5.48769 57.5 3.4177 55.51 2.2977C54.1034 1.4977 54.21 1.1077 55.83 1.1277C58.49 1.15437 61.0134 1.12437 63.4 1.03771C63.8534 1.02437 64.01 1.23436 63.87 1.6677C63.81 1.85436 63.68 1.97771 63.48 2.03771C62.9123 2.20227 62.4133 2.54666 62.058 3.01912C61.7028 3.49158 61.5105 4.06658 61.51 4.6577C61.5034 13.8644 61.49 23.451 61.47 33.4177C61.47 33.8777 61.7034 34.1044 62.17 34.0977Z" fill="black"/>
<path d="M203.45 9.87735C200.783 13.4907 198.347 17.1374 196.14 20.8174C195.56 21.7907 194.937 22.7074 194.27 23.5674C193.31 24.8074 192.99 26.1074 191.94 27.2874C190.56 28.8474 189.93 30.8173 188.52 32.3373C188.173 32.7107 187.863 33.174 187.59 33.7273C187.063 34.8073 186.317 35.874 185.35 36.9274C185.137 37.154 184.99 37.1174 184.91 36.8174C184.71 36.084 184.27 35.4573 183.59 34.9373C183.297 34.704 183.083 34.4107 182.95 34.0573C182.41 32.6507 181.603 31.334 180.53 30.1073C179.66 29.1073 179.58 27.9373 178.68 27.0473C178.4 26.7607 178.14 26.434 177.9 26.0674C174.473 20.694 170.867 15.1207 167.08 9.34735C166.787 8.90068 166.607 8.94068 166.54 9.46735C165.453 17.8473 164.577 25.704 163.91 33.0374C163.763 34.6174 164.37 35.784 165.73 36.5374C166.857 37.1574 166.777 37.4673 165.49 37.4673L158.53 37.4574C157.85 37.4507 157.793 37.2607 158.36 36.8873C160.04 35.7607 160.927 34.344 161.02 32.6373C161.513 23.6907 162.403 15.024 163.69 6.63734C163.837 5.70401 163.747 4.63735 163.42 3.43735C163.32 3.05068 163.077 2.79735 162.69 2.67735C162.35 2.57068 162.043 2.41067 161.77 2.19734C160.863 1.47067 160.99 1.11067 162.15 1.11734H166.59C166.943 1.11734 167.147 1.16402 167.2 1.25735L185.94 30.0773C186.127 30.364 186.323 30.3707 186.53 30.0973C188.443 27.5907 189.453 26.2407 189.56 26.0473C190.865 23.73 192.302 21.3507 193.86 18.9274C197.373 13.4674 201.09 7.71068 205.01 1.65735C205.121 1.48839 205.27 1.34963 205.445 1.25362C205.619 1.1576 205.814 1.10733 206.01 1.10734L210.77 1.09735C211.45 1.09068 211.5 1.26735 210.92 1.62735L209.38 2.58734C209.233 2.681 209.11 2.80634 209.02 2.95369C208.93 3.10104 208.875 3.2665 208.86 3.43735C208.653 5.99068 208.707 8.55067 209.02 11.1173C209.993 19.0307 210.883 26.904 211.69 34.7374C211.73 35.0774 211.897 35.3307 212.19 35.4973L214.41 36.7874C215.203 37.2407 215.143 37.464 214.23 37.4574H204.74C203.887 37.4574 203.853 37.2907 204.64 36.9574C206.213 36.284 206.953 35.0974 206.86 33.3974C206.42 25.8507 205.473 18.054 204.02 10.0074C203.933 9.52069 203.743 9.47735 203.45 9.87735Z" fill="black"/>
<path d="M118.67 2.42756C118.253 2.67096 117.906 3.01936 117.664 3.43846C117.422 3.85756 117.293 4.33288 117.29 4.81756C117.283 10.8842 117.28 17.0042 117.28 23.1776C117.28 28.7176 115.247 32.8209 111.18 35.4876C109.107 36.8542 106.827 37.6076 104.34 37.7476C101.573 37.9076 98.9733 37.8409 96.54 37.5476C95.3867 37.4076 94.1866 37.0276 92.94 36.4076C91.6066 35.7342 90.5166 35.0542 89.67 34.3675C85.54 31.0275 84.4 26.5176 84.4 20.9376C84.4 15.8676 84.3 10.5076 84.42 5.03756C84.4533 3.38423 83.8433 2.31422 82.59 1.82756C81.3366 1.34089 81.38 1.10089 82.72 1.10756C85.7333 1.11422 88.74 1.12422 91.74 1.13756C91.7883 1.13819 91.8355 1.15284 91.8757 1.17973C91.9159 1.20662 91.9474 1.2446 91.9665 1.28906C91.9855 1.33352 91.9913 1.38255 91.983 1.4302C91.9748 1.47786 91.9529 1.52209 91.92 1.55755C91.5666 1.95089 91.1466 2.1309 90.66 2.09756C90.5149 2.08796 90.3695 2.108 90.2326 2.15645C90.0958 2.2049 89.9705 2.28072 89.8645 2.37919C89.7585 2.47767 89.6741 2.5967 89.6166 2.72888C89.559 2.86106 89.5296 3.00358 89.53 3.14757C89.4766 9.88757 89.4667 16.8342 89.5 23.9876C89.5067 25.6942 89.8333 27.1442 90.48 28.3376C91.4866 30.1842 92.9333 31.6909 94.82 32.8576C96.94 34.1709 99.03 34.8542 101.09 34.9076C105.863 35.0342 109.613 33.1176 112.34 29.1576C113.107 28.0442 113.497 26.8609 113.51 25.6076C113.58 18.5376 113.26 11.5276 113.65 4.92756C113.743 3.28756 113.063 2.30422 111.61 1.97755C111.35 1.91755 111.18 1.76423 111.1 1.51756C111.06 1.39089 111.073 1.29422 111.14 1.22755C111.213 1.16089 111.3 1.12756 111.4 1.12756C114.16 1.12089 116.84 1.11755 119.44 1.11755C120.107 1.11755 120.18 1.32756 119.66 1.74756C119.347 2.00089 119.017 2.22756 118.67 2.42756Z" fill="black"/>
<path d="M144.13 17.8075C150.43 19.0075 154.6 23.2875 153.12 30.0175C152.83 31.3575 151.04 33.8775 149.93 34.6975C147.437 36.5508 143.717 37.4841 138.77 37.4975C133.837 37.5108 129.103 37.4841 124.57 37.4175C123.543 37.4041 123.467 37.1275 124.34 36.5875C125.087 36.1275 125.7 35.5975 126.18 34.9975C126.387 34.7508 126.49 34.4641 126.49 34.1375V4.23747C126.489 3.90883 126.391 3.58742 126.208 3.31349C126.025 3.03956 125.765 2.82527 125.46 2.69746C124.86 2.4508 124.313 2.0708 123.82 1.55747C123.788 1.52327 123.767 1.48065 123.758 1.43481C123.75 1.38898 123.754 1.34194 123.771 1.29947C123.788 1.25699 123.817 1.22094 123.854 1.19571C123.891 1.17048 123.935 1.15719 123.98 1.15747C130.46 1.06414 136.183 1.09081 141.15 1.23747C142.49 1.27081 143.89 1.64746 145.35 2.36746C146.443 2.90746 147.29 3.60414 147.89 4.45747C150.55 8.22414 150.493 11.7708 147.72 15.0975C147.52 15.3375 147.283 15.5275 147.01 15.6675L144.04 17.2175C143.5 17.4975 143.53 17.6941 144.13 17.8075ZM131.03 4.00748V16.2275C131.03 16.2669 131.038 16.3059 131.053 16.3423C131.068 16.3787 131.09 16.4117 131.118 16.4396C131.146 16.4675 131.179 16.4896 131.215 16.5046C131.252 16.5197 131.291 16.5275 131.33 16.5275H138.65C140.406 16.5275 142.089 15.9227 143.331 14.8463C144.572 13.7698 145.27 12.3098 145.27 10.7875V9.44746C145.27 7.92512 144.572 6.46513 143.331 5.38867C142.089 4.31221 140.406 3.70747 138.65 3.70747H131.33C131.291 3.70747 131.252 3.71522 131.215 3.7303C131.179 3.74538 131.146 3.76748 131.118 3.79533C131.09 3.82319 131.068 3.85627 131.053 3.89267C131.038 3.92907 131.03 3.96808 131.03 4.00748ZM131.04 20.0675L131.02 34.4475C131.02 34.5403 131.057 34.6293 131.122 34.695C131.188 34.7606 131.277 34.7975 131.37 34.7975L140.4 34.8075C141.417 34.8091 142.424 34.6412 143.363 34.3134C144.303 33.9856 145.157 33.5042 145.877 32.8969C146.597 32.2896 147.168 31.5681 147.558 30.7738C147.948 29.9795 148.149 29.1278 148.15 28.2675V26.2875C148.152 24.5507 147.339 22.884 145.889 21.6538C144.439 20.4236 142.472 19.7307 140.42 19.7275L131.39 19.7175C131.297 19.7175 131.208 19.7543 131.142 19.82C131.077 19.8856 131.04 19.9746 131.04 20.0675Z" fill="black"/>
<path d="M304.23 29.9677C304.697 30.4477 304.93 30.351 304.93 29.6777C304.91 23.0777 304.913 15.971 304.94 8.35768C304.947 6.72435 304.827 5.02101 304.58 3.24768C304.556 3.07848 304.49 2.91787 304.389 2.78008C304.288 2.64228 304.154 2.53156 304 2.45769L302.9 1.91768C301.8 1.38435 301.863 1.11768 303.09 1.11768H310.49C311.523 1.12434 311.573 1.34769 310.64 1.78769C309.02 2.55436 308.203 3.81435 308.19 5.56769C308.13 14.4944 308.127 23.3844 308.18 32.2377C308.193 34.331 309.103 35.8377 310.91 36.7577C311.83 37.2244 311.773 37.4577 310.74 37.4577H304.73C304.583 37.4581 304.44 37.4093 304.322 37.3189C304.205 37.2286 304.12 37.1016 304.08 36.9577C303.95 36.4777 303.73 36.0677 303.3 35.7977C302.09 35.0377 301.35 33.8477 300.33 32.8277C296.437 28.881 292.49 24.7844 288.49 20.5377C287.55 19.5377 286.25 18.8377 285.62 17.6477C285.14 16.7377 284.45 16.2977 283.64 15.7177C283.373 15.531 283.17 15.2843 283.03 14.9777C282.703 14.251 282.167 13.711 281.42 13.3577C281.06 13.191 280.777 12.8941 280.63 12.5277C280.35 11.8343 279.86 11.3143 279.16 10.9677C278.753 10.7677 278.443 10.4677 278.23 10.0677C277.75 9.14102 277.03 8.44102 276.07 7.96768C276.03 7.94709 275.986 7.93704 275.942 7.93848C275.897 7.93992 275.854 7.9528 275.815 7.97591C275.777 7.99901 275.746 8.03155 275.724 8.07039C275.702 8.10923 275.69 8.15306 275.69 8.19768C275.677 16.3043 275.68 24.4677 275.7 32.6877C275.71 34.4177 276.19 35.8677 277.94 36.5977C279.16 37.1044 279.11 37.381 277.79 37.4277C275.59 37.5144 273.353 37.5244 271.08 37.4577C269.647 37.4177 269.58 37.0977 270.88 36.4977C271.83 36.0577 272.5 35.2677 272.5 34.1777C272.52 23.851 272.517 13.851 272.49 4.17769C272.49 3.79047 272.367 3.41288 272.139 3.09868C271.911 2.78448 271.59 2.54968 271.22 2.42769C270.767 2.27436 270.373 2.03435 270.04 1.70769C269.64 1.31435 269.72 1.11768 270.28 1.11768L275.96 1.12769C276.093 1.1276 276.224 1.15413 276.346 1.20567C276.468 1.25722 276.578 1.33273 276.67 1.42769L304.23 29.9677Z" fill="black"/>
<path d="M324.62 31.0276C324.62 32.7488 323.936 34.3996 322.719 35.6167C321.502 36.8338 319.851 37.5176 318.13 37.5176C316.409 37.5176 314.758 36.8338 313.541 35.6167C312.324 34.3996 311.64 32.7488 311.64 31.0276C311.64 29.3063 312.324 27.6556 313.541 26.4385C314.758 25.2214 316.409 24.5376 318.13 24.5376C319.851 24.5376 321.502 25.2214 322.719 26.4385C323.936 27.6556 324.62 29.3063 324.62 31.0276ZM323.16 31.0276C323.16 30.3736 323.031 29.726 322.781 29.1218C322.531 28.5176 322.164 27.9686 321.701 27.5062C321.239 27.0438 320.69 26.6769 320.086 26.4267C319.482 26.1764 318.834 26.0476 318.18 26.0476C316.859 26.0476 315.593 26.5723 314.659 27.5062C313.725 28.4401 313.2 29.7068 313.2 31.0276C313.2 32.3484 313.725 33.615 314.659 34.549C315.593 35.4829 316.859 36.0076 318.18 36.0076C318.834 36.0076 319.482 35.8788 320.086 35.6285C320.69 35.3782 321.239 35.0114 321.701 34.549C322.164 34.0865 322.531 33.5376 322.781 32.9333C323.031 32.3291 323.16 31.6816 323.16 31.0276Z" fill="black"/>
<path d="M317.4 32.3674C317.22 32.7674 317.173 33.2074 317.26 33.6874C317.353 34.2141 317.133 34.4774 316.6 34.4774H316.33C315.803 34.4774 315.537 34.2141 315.53 33.6874V29.0674C315.53 28.0807 316.023 27.5874 317.01 27.5874C317.81 27.5941 318.553 27.6441 319.24 27.7374C320.52 27.9174 320.97 28.6241 320.59 29.8574C320.203 31.1174 320.32 32.4441 320.94 33.8374C321.053 34.0974 320.977 34.2774 320.71 34.3774L320.36 34.5074C320.013 34.6341 319.777 34.5241 319.65 34.1774L318.99 32.4074C318.929 32.2482 318.822 32.1108 318.683 32.0124C318.544 31.914 318.379 31.8592 318.208 31.8549C318.038 31.8507 317.87 31.8971 317.726 31.9883C317.582 32.0796 317.469 32.2115 317.4 32.3674ZM318.94 30.3674C319.039 30.3363 319.125 30.2709 319.183 30.1819C319.241 30.0929 319.268 29.9856 319.26 29.8774C319.213 29.3441 318.91 29.0007 318.35 28.8474C318.083 28.7741 317.847 28.8174 317.64 28.9774C317.293 29.2441 317.15 29.6207 317.21 30.1074C317.22 30.2003 317.251 30.2898 317.3 30.3693C317.349 30.4488 317.416 30.5163 317.494 30.5671C317.573 30.6178 317.662 30.6504 317.754 30.6626C317.847 30.6748 317.941 30.6662 318.03 30.6374L318.94 30.3674Z" fill="black"/>
<path d="M337.36 49.1573C337.36 49.2045 337.351 49.2514 337.333 49.295C337.314 49.3387 337.288 49.3784 337.255 49.4118C337.221 49.4453 337.181 49.4718 337.138 49.4899C337.094 49.508 337.047 49.5173 337 49.5173H0.36C0.264522 49.5173 0.172955 49.4793 0.105442 49.4118C0.0379285 49.3443 0 49.2528 0 49.1573V46.0573C0 45.9618 0.0379285 45.8702 0.105442 45.8027C0.172955 45.7352 0.264522 45.6973 0.36 45.6973H337C337.047 45.6973 337.094 45.7066 337.138 45.7247C337.181 45.7428 337.221 45.7693 337.255 45.8027C337.288 45.8361 337.314 45.8758 337.333 45.9195C337.351 45.9632 337.36 46.01 337.36 46.0573V49.1573Z" fill="black"/>
<path d="M198.33 78.1073L194.58 74.1173C194.287 73.804 193.927 73.6473 193.5 73.6473L175.84 73.6373C175.393 73.6373 175.027 73.8106 174.74 74.1573L171.24 78.3673C171.033 78.614 170.77 78.7673 170.45 78.8273C169.61 78.9873 168.8 79.0706 168.02 79.0773C166.007 79.0906 165.937 78.734 167.81 78.0073C168.31 77.814 168.747 77.5273 169.12 77.1473C171.627 74.574 173.983 72.024 176.19 69.4973C178.977 66.3106 181.81 63.254 184.69 60.3273C184.943 60.074 185.193 60.0706 185.44 60.3173L201.98 76.9873C202.253 77.2673 202.573 77.4706 202.94 77.5973C203.513 77.804 204.037 78.1106 204.51 78.5173C205.023 78.9573 204.943 79.1506 204.27 79.0973C202.217 78.924 200.29 78.914 198.49 79.0673C198.023 79.1073 197.983 78.9973 198.37 78.7373C198.49 78.6573 198.513 78.5073 198.44 78.2873C198.42 78.214 198.383 78.154 198.33 78.1073ZM177.11 71.7473C177.067 71.795 177.039 71.8542 177.03 71.9175C177.02 71.9808 177.029 72.0456 177.055 72.1039C177.082 72.1622 177.125 72.2115 177.179 72.2459C177.233 72.2802 177.296 72.2981 177.36 72.2973L191.95 72.3573C192.014 72.356 192.077 72.336 192.13 72.2996C192.183 72.2633 192.224 72.2122 192.249 72.1527C192.273 72.0932 192.28 72.0279 192.267 71.9648C192.255 71.9016 192.225 71.8434 192.18 71.7973L184.47 63.9873C184.438 63.9552 184.401 63.93 184.359 63.913C184.317 63.8961 184.273 63.8878 184.228 63.8888C184.183 63.8897 184.139 63.8998 184.098 63.9185C184.057 63.9371 184.02 63.964 183.99 63.9973L177.11 71.7473Z" fill="black"/>
<path d="M27.63 71.7377L27.61 76.8777C27.6069 77.0389 27.6423 77.1995 27.7134 77.347C27.7846 77.4945 27.8895 77.6248 28.02 77.7277L29.12 78.5777C29.4733 78.851 29.4267 78.991 28.98 78.9977L21.79 79.0677C21.6767 79.0743 21.61 79.0177 21.59 78.8977L21.54 78.6277C21.5333 78.5877 21.55 78.5643 21.59 78.5577C22.8833 78.4977 23.54 77.9543 23.56 76.9277C23.6333 72.1343 23.6467 67.311 23.6 62.4577C23.5974 62.2154 23.4993 61.984 23.327 61.8136C23.1548 61.6432 22.9223 61.5476 22.68 61.5477C22.36 61.5477 22.0767 61.4543 21.83 61.2677C21.41 60.9543 21.4633 60.7877 21.99 60.7677C28.1033 60.5677 32.6033 60.571 35.49 60.7777C39.01 61.0277 43.1 61.9077 43.51 65.8277C43.5419 66.1628 43.4491 66.4947 43.25 66.7577L41.57 69.0277C41.4167 69.2277 41.22 69.3743 40.98 69.4677C36.76 71.0277 32.51 71.6043 28.23 71.1977C27.8367 71.1643 27.6367 71.3443 27.63 71.7377ZM27.6 62.3377L27.62 69.1377C27.62 69.2278 27.6558 69.3143 27.7196 69.3781C27.7833 69.4418 27.8698 69.4777 27.96 69.4777L32.74 69.4577C34.5004 69.4519 36.1878 69.0704 37.4311 68.3972C38.6743 67.724 39.3717 66.8142 39.37 65.8677V65.5277C39.3691 65.0587 39.1964 64.5948 38.8617 64.1626C38.527 63.7303 38.0369 63.3381 37.4193 63.0085C36.8018 62.6788 36.0689 62.4181 35.2626 62.2412C34.4563 62.0643 33.5923 61.9748 32.72 61.9777L27.94 61.9977C27.8498 61.9977 27.7633 62.0335 27.6996 62.0972C27.6358 62.161 27.6 62.2475 27.6 62.3377Z" fill="black"/>
<path d="M77.4 77.8274C77.82 78.0341 78.23 78.2674 78.63 78.5274C79.1233 78.854 79.0766 79.0174 78.49 79.0174L71.5 79.0474C70.8666 79.0474 70.82 78.8807 71.36 78.5474L72.8 77.6574C72.9318 77.5744 73.0404 77.4593 73.1157 77.3229C73.1909 77.1865 73.2302 77.0332 73.23 76.8774L73.22 62.7374C73.22 62.3841 73.0766 62.1141 72.79 61.9274C72.35 61.6407 71.8633 61.454 71.33 61.3674C71.0366 61.3207 70.9466 61.1574 71.06 60.8774C71.1 60.7907 71.1666 60.7474 71.26 60.7474C73.6266 60.674 75.9033 60.674 78.09 60.7474C79.47 60.7874 79.5066 61.0307 78.2 61.4774L77.52 61.6974C77.0666 61.8574 76.84 62.1774 76.84 62.6574L76.83 76.9074C76.8302 77.0995 76.8837 77.2874 76.9844 77.45C77.0852 77.6126 77.2291 77.7433 77.4 77.8274Z" fill="black"/>
<path d="M111.01 65.1774L111.02 76.9374C111.02 77.0909 111.063 77.2419 111.144 77.3741C111.225 77.5063 111.341 77.6147 111.48 77.6874L113.12 78.5374C113.807 78.8908 113.763 79.0641 112.99 79.0574L106.94 79.0274C106.14 79.0208 106.103 78.8441 106.83 78.4974L107.99 77.9474C108.297 77.8008 108.45 77.5541 108.45 77.2074L108.47 62.5574C108.47 62.1841 108.297 61.9241 107.95 61.7774L106.96 61.3774C106.28 61.1041 106.3 60.9008 107.02 60.7674C109.733 60.2741 112.153 60.7974 114.28 62.3374C115.447 63.1908 116.6 63.9574 117.74 64.6374C120.067 66.0374 122.253 67.5008 124.3 69.0274C124.727 69.3408 125.173 69.5741 125.64 69.7274C126.53 70.0274 126.94 70.8274 127.76 71.2874C129.753 72.4141 131.623 73.6908 133.37 75.1174C133.457 75.1872 133.561 75.2311 133.672 75.2439C133.783 75.2568 133.895 75.238 133.995 75.1899C134.095 75.1418 134.18 75.0663 134.239 74.9721C134.299 74.8778 134.33 74.7688 134.33 74.6574V62.7474C134.33 62.3941 134.183 62.1174 133.89 61.9174C133.67 61.7774 133.44 61.6708 133.2 61.5974C131.553 61.1041 131.59 60.8241 133.31 60.7574C135.217 60.6841 137.217 60.6608 139.31 60.6874C139.35 60.6874 139.37 60.7108 139.37 60.7574L139.39 61.0074C139.393 61.1066 139.357 61.2028 139.289 61.2757C139.222 61.3486 139.129 61.3923 139.03 61.3974C138.497 61.4174 137.977 61.5208 137.47 61.7074C137.13 61.8341 136.96 62.0774 136.96 62.4374V76.9174C136.96 77.2974 137.13 77.5708 137.47 77.7374L139.28 78.6174C140.013 78.9774 139.973 79.1408 139.16 79.1074C138.033 79.0674 136.84 79.0374 135.58 79.0174C134.607 79.0041 133.577 78.6541 132.49 77.9674C125.703 73.6608 118.93 69.1941 112.17 64.5674C111.397 64.0408 111.01 64.2441 111.01 65.1774Z" fill="black"/>
<path d="M254.95 62.6977C255.05 66.1111 255.027 69.3177 254.88 72.3177C254.753 74.9111 253.313 76.7244 250.56 77.7577C244.387 80.0844 238.263 79.8677 232.19 77.1077C229.84 76.0477 228.95 73.2377 228.95 70.8177C228.957 68.0244 228.96 65.3444 228.96 62.7777C228.96 62.3911 228.803 62.0877 228.49 61.8677C228.103 61.6011 227.68 61.4244 227.22 61.3377C227.156 61.3257 227.098 61.2907 227.057 61.2391C227.017 61.1876 226.996 61.1232 227 61.0577C227.013 60.8644 227.087 60.7644 227.22 60.7577C229.42 60.6644 231.63 60.6644 233.85 60.7577C235.237 60.8111 235.263 61.0377 233.93 61.4377L233.28 61.6277C232.913 61.7344 232.727 61.9811 232.72 62.3677C232.68 66.0077 232.693 69.3711 232.76 72.4577C232.78 73.3177 233.143 74.0111 233.85 74.5377C237.97 77.6044 242.457 78.3544 247.31 76.7877C248.523 76.3944 249.82 75.7011 251.2 74.7077C251.52 74.4811 251.683 74.1711 251.69 73.7777L251.83 62.4677C251.837 61.9944 251.61 61.6911 251.15 61.5577L250.2 61.2877C250.165 61.2771 250.132 61.2599 250.103 61.237C250.075 61.2142 250.051 61.1862 250.033 61.1546C250.015 61.123 250.004 61.0885 250 61.053C249.996 61.0175 250 60.9817 250.01 60.9477C250.05 60.8211 250.13 60.7544 250.25 60.7477C252.203 60.6544 254.28 60.6544 256.48 60.7477C257.153 60.7744 257.217 60.9844 256.67 61.3777C256.41 61.5644 256.12 61.6777 255.8 61.7177C255.561 61.7452 255.342 61.861 255.184 62.0424C255.027 62.2239 254.943 62.4577 254.95 62.6977Z" fill="black"/>
<path d="M286.28 77.6675C286.43 77.5426 286.551 77.3856 286.634 77.2077C286.717 77.0297 286.76 76.835 286.76 76.6375L286.75 62.7475C286.75 62.4675 286.65 62.2309 286.45 62.0376C286.05 61.6709 285.56 61.4242 284.98 61.2975C284.847 61.2709 284.793 61.1909 284.82 61.0575C284.84 60.9575 284.883 60.8776 284.95 60.8176C285.037 60.7376 285.137 60.6975 285.25 60.6975C293.08 60.7475 301.35 60.1075 309.01 61.8675C311.11 62.3575 311.75 63.1275 313.38 64.1375C313.98 64.5042 314.487 64.9675 314.9 65.5275C316.667 67.9142 316.9 70.3709 315.6 72.8976C315.107 73.8509 314.437 74.6509 313.59 75.2975C312.517 76.1242 311.497 76.7175 310.53 77.0775C303.2 79.8375 293.53 79.0176 285.32 79.0676C284.867 79.0676 284.81 78.9242 285.15 78.6375L286.28 77.6675ZM290.96 62.6375L290.94 76.9975C290.94 77.1169 290.987 77.2314 291.072 77.3158C291.156 77.4001 291.271 77.4475 291.39 77.4475L299.84 77.4675C303.076 77.4727 306.18 76.6928 308.469 75.2994C310.759 73.9061 312.047 72.0133 312.05 70.0376V69.6776C312.051 68.6992 311.737 67.7298 311.125 66.8249C310.514 65.92 309.616 65.0972 308.484 64.4036C307.352 63.7099 306.008 63.1589 304.528 62.7821C303.048 62.4053 301.462 62.2101 299.86 62.2076L291.41 62.1875C291.291 62.1875 291.176 62.235 291.092 62.3194C291.007 62.4037 290.96 62.5182 290.96 62.6375Z" fill="black"/>
</g>
<defs>
<clipPath id="clip0_696_758">
<rect width="337" height="80" fill="white"/>
</clipPath>
</defs>
</svg>
