<?xml version="1.0" encoding="UTF-8" standalone="no"?>
<!DOCTYPE svg PUBLIC "-//W3C//DTD SVG 1.1//EN" "http://www.w3.org/Graphics/SVG/1.1/DTD/svg11.dtd">
<svg xmlns="http://www.w3.org/2000/svg" version="1.1" viewBox="0.00 0.00 50.00 50.00">
<path fill="#c6bebb" d="
  M 50.00 26.16
  L 50.00 28.93
  Q 49.30 33.66 45.59 35.72
  C 44.54 36.30 43.99 37.05 43.21 37.87
  Q 42.88 38.21 42.81 38.68
  C 42.01 44.34 37.49 46.35 32.37 45.99
  A 2.36 2.33 -61.4 0 0 30.75 46.48
  Q 27.61 48.91 22.21 47.72
  C 18.88 46.98 19.59 42.17 23.26 42.01
  Q 26.04 41.90 28.58 42.17
  Q 29.05 42.22 29.39 42.56
  Q 31.56 44.74 35.62 43.86
  Q 40.36 42.85 40.92 38.34
  Q 40.99 37.78 40.51 37.48
  C 39.52 36.87 39.00 35.92 39.00 34.75
  Q 39.00 27.06 39.01 19.76
  Q 39.01 18.93 39.59 18.34
  L 40.38 17.54
  A 1.41 1.40 61.3 0 0 40.76 16.22
  C 36.69 -1.25 13.17 -1.43 9.28 16.09
  Q 9.03 17.21 9.93 17.93
  Q 11.01 18.80 11.00 20.22
  Q 10.99 27.16 11.01 34.54
  C 11.01 36.82 9.36 38.38 7.01 37.78
  A 1.70 1.69 -12.1 0 1 6.12 37.21
  C 5.51 36.46 5.23 36.19 4.32 35.67
  Q 0.63 33.58 0.00 28.81
  L 0.00 26.04
  C 0.46 23.39 1.66 20.83 4.06 19.49
  Q 5.69 18.58 6.86 17.06
  A 1.94 1.83 71.3 0 0 7.19 16.34
  C 11.59 -4.19 38.70 -3.91 42.77 16.33
  Q 42.85 16.72 43.09 17.04
  Q 44.29 18.60 45.86 19.45
  C 48.35 20.79 49.58 23.44 50.00 26.16
  Z
  M 9.0131 19.9918
  A 0.97 0.97 0.0 0 0 8.0448 19.0201
  L 7.9848 19.0200
  A 0.97 0.97 0.0 0 0 7.0131 19.9883
  L 6.9869 35.0282
  A 0.97 0.97 0.0 0 0 7.9552 35.9999
  L 8.0152 36.0000
  A 0.97 0.97 0.0 0 0 8.9869 35.0317
  L 9.0131 19.9918
  Z
  M 43.00 19.98
  A 0.95 0.95 0.0 0 0 42.05 19.03
  L 41.95 19.03
  A 0.95 0.95 0.0 0 0 41.00 19.98
  L 41.00 35.04
  A 0.95 0.95 0.0 0 0 41.95 35.99
  L 42.05 35.99
  A 0.95 0.95 0.0 0 0 43.00 35.04
  L 43.00 19.98
  Z
  M 4.99 33.46
  L 4.99 21.52
  A 0.10 0.10 0.0 0 0 4.89 21.42
  L 4.87 21.42
  A 5.95 2.76 -90.0 0 0 2.11 27.37
  L 2.11 27.61
  A 5.95 2.76 90.0 0 0 4.87 33.56
  L 4.89 33.56
  A 0.10 0.10 0.0 0 0 4.99 33.46
  Z
  M 45.00 21.61
  L 45.00 33.41
  A 0.11 0.11 0.0 0 0 45.11 33.52
  L 45.14 33.52
  A 5.90 2.76 90.0 0 0 47.90 27.62
  L 47.90 27.40
  A 5.90 2.76 -90.0 0 0 45.14 21.50
  L 45.11 21.50
  A 0.11 0.11 0.0 0 0 45.00 21.61
  Z
  M 29.0599 44.9539
  A 0.93 0.93 0.0 0 0 28.1283 44.0255
  L 22.9683 44.0345
  A 0.93 0.93 0.0 0 0 22.0399 44.9661
  L 22.0401 45.0461
  A 0.93 0.93 0.0 0 0 22.9717 45.9745
  L 28.1317 45.9655
  A 0.93 0.93 0.0 0 0 29.0601 45.0339
  L 29.0599 44.9539
  Z"
/>
</svg>
