<svg width="485" height="332" viewBox="0 0 485 332" fill="none" xmlns="http://www.w3.org/2000/svg">
<path d="M64.2834 13.6857C69.5634 0.365726 85.9834 -1.72427 98.3234 1.09573C106.35 2.93573 111.633 7.29572 114.173 14.1757C115.2 16.9557 115.697 21.6724 115.663 28.3257C115.523 54.1257 115.523 81.309 115.663 109.876C115.703 118.209 115.227 123.702 114.233 126.356C111.827 132.809 107.073 137.052 99.9734 139.086C90.7434 141.736 79.1434 141.286 70.9634 135.606C64.6134 131.206 62.7734 124.536 62.7734 116.826C62.8001 86.3591 62.8234 54.3191 62.8434 20.7057C62.8434 18.4457 63.3234 16.1057 64.2834 13.6857ZM95.0834 21.8457C95.0834 20.3923 94.5061 18.9985 93.4784 17.9708C92.4507 16.9431 91.0568 16.3657 89.6034 16.3657H88.5834C87.13 16.3657 85.7362 16.9431 84.7085 17.9708C83.6808 18.9985 83.1034 20.3923 83.1034 21.8457V118.686C83.1034 119.405 83.2452 120.118 83.5206 120.783C83.796 121.448 84.1996 122.052 84.7085 122.561C85.2174 123.07 85.8215 123.473 86.4863 123.749C87.1512 124.024 87.8638 124.166 88.5834 124.166H89.6034C90.3231 124.166 91.0357 124.024 91.7005 123.749C92.3654 123.473 92.9695 123.07 93.4784 122.561C93.9872 122.052 94.3909 121.448 94.6663 120.783C94.9417 120.118 95.0834 119.405 95.0834 118.686V21.8457Z" fill="black"/>
<path d="M463.533 22.1059C463.493 17.9159 460.453 15.7759 456.533 16.4159C453.393 16.9292 451.78 18.9892 451.693 22.5959C451.547 28.8559 451.52 34.8992 451.613 40.7259C451.64 42.4459 452.077 44.0492 452.923 45.5359C455.243 49.5825 458.163 53.8058 461.683 58.2058C468.573 66.8058 475.583 75.1458 481.063 84.5958C483.143 88.1758 484.243 91.8558 484.143 96.0158C484.003 101.569 484.003 106.923 484.143 112.076C484.323 118.469 483.82 123.319 482.633 126.626C477.673 140.416 459.503 142.666 447.063 139.186C439.937 137.193 435.15 133.023 432.703 126.676C431.663 123.969 431.18 119.843 431.253 114.296C431.387 104.996 431.4 95.7992 431.293 86.7058C431.292 86.6617 431.3 86.6177 431.316 86.5765C431.332 86.5353 431.356 86.4977 431.387 86.466C431.417 86.4343 431.454 86.4091 431.495 86.3919C431.536 86.3747 431.579 86.3658 431.623 86.3659H451.043C451.397 86.3659 451.573 86.5425 451.573 86.8959C451.58 96.7159 451.587 106.563 451.593 116.436C451.603 120.976 452.883 124.466 458.053 124.226C462.283 124.036 463.663 121.286 463.613 117.606C463.553 112.559 463.563 107.493 463.643 102.406C463.753 95.4158 459.693 88.3759 455.313 82.9359C448.693 74.7059 441.773 66.9559 436.273 58.1359C432.953 52.7959 431.083 46.9358 431.273 40.4958C431.42 35.7758 431.417 30.9925 431.263 26.1459C431.103 21.0925 431.59 17.0125 432.723 13.9059C436.743 2.90586 448.473 -0.324147 459.483 0.0758532C471.013 0.485853 481.923 5.74585 483.753 18.3659C484.067 20.5325 484.183 24.3225 484.103 29.7359C483.997 36.9892 484.02 43.9825 484.173 50.7159C484.18 51.1492 483.967 51.3659 483.533 51.3659H463.873C463.791 51.3659 463.712 51.3321 463.654 51.2721C463.596 51.2121 463.563 51.1307 463.563 51.0458C463.617 41.1658 463.607 31.5192 463.533 22.1059Z" fill="black"/>
<path d="M30.1835 121.786C31.1035 119.372 31.5668 116.906 31.5735 114.386C31.5935 77.4524 31.5935 40.3757 31.5735 3.15572C31.5735 2.79572 31.7568 2.61572 32.1235 2.61572H51.5235C51.7501 2.61572 51.8635 2.72905 51.8635 2.95572C51.8101 41.1424 51.8068 79.1291 51.8535 116.916C51.8735 132.696 40.8435 140.226 26.1535 140.606C15.0735 140.896 5.00347 135.026 1.38347 124.336C0.37014 121.342 -0.086527 116.876 0.013473 110.936C0.146806 102.949 0.153473 94.8691 0.033473 86.6957C0.033473 86.6082 0.0682409 86.5243 0.130128 86.4624C0.192015 86.4005 0.275951 86.3657 0.363473 86.3657H20.0635C20.4301 86.3657 20.6101 86.5491 20.6035 86.9157C20.5501 96.6691 20.5568 106.506 20.6235 116.426C20.6535 120.566 21.8535 124.706 27.0235 124.146C28.5901 123.979 29.6435 123.192 30.1835 121.786Z" fill="black"/>
<path d="M157.833 53.8757L157.824 3.1057C157.824 2.97574 157.875 2.85111 157.967 2.75922C158.059 2.66732 158.184 2.6157 158.313 2.6157H177.593C177.723 2.6157 177.848 2.66732 177.94 2.75922C178.032 2.85111 178.083 2.97574 178.083 3.1057V137.376C178.083 137.506 178.032 137.63 177.94 137.722C177.848 137.814 177.723 137.866 177.593 137.866H158.324C158.194 137.866 158.069 137.814 157.977 137.722C157.885 137.63 157.833 137.506 157.833 137.376L157.824 72.8557C157.824 72.7257 157.772 72.6011 157.68 72.5092C157.588 72.4173 157.463 72.3657 157.333 72.3657L147.363 72.3457C147.234 72.3457 147.109 72.3973 147.017 72.4892C146.925 72.5811 146.873 72.7057 146.873 72.8357L146.863 137.376C146.863 137.44 146.851 137.504 146.826 137.563C146.802 137.623 146.765 137.677 146.72 137.722C146.674 137.768 146.62 137.804 146.561 137.828C146.502 137.853 146.438 137.866 146.373 137.866H126.824C126.694 137.866 126.569 137.814 126.477 137.722C126.385 137.63 126.333 137.506 126.333 137.376V3.0857C126.333 2.95574 126.385 2.83111 126.477 2.73922C126.569 2.64733 126.694 2.5957 126.824 2.5957L146.404 2.6457C146.533 2.6457 146.658 2.69732 146.75 2.78922C146.842 2.88111 146.893 3.00574 146.893 3.1357L146.873 53.8657C146.873 53.9957 146.925 54.1203 147.017 54.2122C147.109 54.3041 147.234 54.3557 147.363 54.3557L157.343 54.3657C157.473 54.3657 157.598 54.3141 157.69 54.2222C157.782 54.1303 157.833 54.0057 157.833 53.8757Z" fill="black"/>
<path d="M205.983 22.8857C205.87 22.7857 205.79 22.7824 205.743 22.8757C205.73 22.9091 205.723 22.9457 205.723 22.9857C205.833 29.8257 206.333 36.7857 206.333 43.1557C206.347 72.129 206.344 103.526 206.324 137.346C206.324 137.692 206.147 137.866 205.794 137.866H190.083C189.75 137.866 189.583 137.699 189.583 137.366V3.11572C189.583 2.78239 189.75 2.61572 190.083 2.61572H219.373C219.767 2.61572 219.993 2.81239 220.053 3.20572C222.323 18.7457 224.413 34.2357 227.013 49.4857C230.86 71.9857 233.553 94.6224 235.093 117.396C235.1 117.536 235.17 117.602 235.303 117.596H235.313C235.433 117.596 235.493 117.536 235.493 117.416C235.66 111.322 235.683 105.226 235.563 99.1257C235.35 88.4924 235.243 83.1457 235.243 83.0857C235.01 56.7791 234.977 30.1624 235.143 3.23573C235.15 2.82239 235.36 2.61572 235.773 2.61572H251.583C251.75 2.61572 251.833 2.69906 251.833 2.86572V137.616C251.833 137.682 251.807 137.746 251.76 137.792C251.713 137.839 251.65 137.866 251.583 137.866H222.273C222.134 137.865 222 137.815 221.896 137.725C221.791 137.635 221.723 137.511 221.703 137.376C219.017 117.849 216.267 98.3191 213.453 78.7857C212.607 72.8924 211.687 66.7857 210.693 60.4657C208.853 48.7724 207.513 37.2291 206.673 25.8357C206.603 24.9157 206.243 23.8857 206.033 22.9757C206.027 22.9424 206.01 22.9124 205.983 22.8857Z" fill="black"/>
<path d="M279.693 23.2057C279.333 29.6157 280.083 35.3457 280.083 41.7157C280.09 73.4691 280.09 105.332 280.083 137.306C280.083 137.679 279.9 137.866 279.534 137.866H263.833C263.5 137.866 263.333 137.699 263.333 137.366V3.11572C263.333 2.78239 263.5 2.61572 263.833 2.61572H293.113C293.513 2.61572 293.743 2.81239 293.803 3.20572C295.983 18.2657 298.073 33.3857 300.583 48.1857C304.157 69.3191 306.737 90.1057 308.323 110.546C308.497 112.739 308.593 115.039 308.613 117.446C308.613 117.606 308.697 117.686 308.863 117.686H308.874C309.02 117.686 309.097 117.609 309.103 117.456C309.41 108.656 309.433 99.8591 309.173 91.0657C308.953 83.6391 308.844 76.9857 308.844 71.1057C308.83 48.8191 308.827 26.0857 308.833 2.90572C308.833 2.71239 308.93 2.61572 309.124 2.61572H325.083C325.417 2.61572 325.583 2.78239 325.583 3.11572V137.616C325.583 137.782 325.5 137.866 325.333 137.866H296.094C295.727 137.866 295.517 137.686 295.464 137.326C292.134 113.496 288.944 89.1557 285.124 65.0457C282.977 51.5257 281.303 37.5757 280.103 23.1957C280.105 23.1413 280.085 23.0896 280.047 23.052C280.009 23.0144 279.958 22.9941 279.904 22.9954C279.849 22.9967 279.796 23.0196 279.757 23.0591C279.718 23.0985 279.695 23.1513 279.693 23.2057Z" fill="black"/>
<path d="M364.014 60.2457C364.527 49.9791 365.504 41.6491 366.944 35.2557C369.25 25.0491 371.787 14.3191 374.554 3.06572C374.585 2.93789 374.658 2.82417 374.761 2.74263C374.864 2.66109 374.992 2.61643 375.124 2.61572H393.324C393.564 2.61572 393.654 2.72905 393.594 2.95572C387.034 29.6957 380.424 56.4057 373.764 83.0857C373.124 85.6591 372.807 88.1557 372.814 90.5757C372.84 106.722 372.847 122.302 372.834 137.316C372.834 137.682 372.65 137.866 372.284 137.866H353.134C352.767 137.866 352.584 137.682 352.584 137.316C352.557 122.062 352.57 106.706 352.624 91.2457C352.637 88.7257 352.337 86.2191 351.724 83.7257C345.15 56.9991 338.58 30.1791 332.014 3.26572C331.907 2.83239 332.077 2.61572 332.524 2.61572H352.304C352.664 2.61572 352.884 2.79239 352.964 3.14572C355.137 12.7524 357.364 22.6157 359.644 32.7357C361.684 41.7657 362.744 51.0457 363.774 60.2557C363.88 61.2291 363.96 61.2257 364.014 60.2457Z" fill="black"/>
<path d="M423.743 3.01549L411.873 42.3755C411.854 42.4423 411.813 42.501 411.757 42.5425C411.701 42.584 411.633 42.6061 411.563 42.6055L399.953 42.6355C399.907 42.6361 399.861 42.6265 399.818 42.6073C399.776 42.5882 399.738 42.5601 399.707 42.5248C399.677 42.4896 399.655 42.4481 399.642 42.4033C399.629 42.3585 399.626 42.3115 399.633 42.2655L406.043 2.88548C406.055 2.81123 406.093 2.74349 406.149 2.69412C406.206 2.64475 406.278 2.61691 406.353 2.61548L423.433 2.60548C423.483 2.60503 423.533 2.61627 423.578 2.63833C423.622 2.66038 423.662 2.69262 423.692 2.73247C423.722 2.77233 423.742 2.81868 423.751 2.86783C423.76 2.91697 423.758 2.96754 423.743 3.01549Z" fill="black"/>
<path d="M34.6235 172.286C34.6535 167.586 34.7235 161.846 28.0235 162.616C24.2135 163.046 23.5835 166.266 23.5835 169.386C23.5702 198.979 23.5768 227.646 23.6035 255.386C23.6135 262.796 34.3935 262.796 34.3735 255.596C34.3668 255.049 34.3735 254.479 34.3935 253.886C34.6402 246.006 34.6868 237.106 34.5335 227.186C34.5268 226.806 34.7135 226.616 35.0935 226.616H52.5435C52.9102 226.616 53.0935 226.799 53.0935 227.166C53.1002 237.179 53.0902 246.646 53.0635 255.566C53.0335 265.166 47.4935 272.226 38.3735 274.586C27.1835 277.486 11.4835 275.696 6.5235 263.816C5.49017 261.322 4.9835 257.986 5.0035 253.806C5.13683 225.632 5.14017 197.212 5.0135 168.546C4.9635 158.996 9.3935 151.826 19.0135 149.006C25.2402 147.172 31.5402 147.082 37.9135 148.736C48.1002 151.376 53.1568 158.052 53.0835 168.766C53.0302 177.639 53.0435 186.226 53.1235 194.526C53.1302 194.919 52.9335 195.116 52.5335 195.116H35.1235C34.7635 195.116 34.5835 194.939 34.5835 194.586C34.5635 186.779 34.5768 179.346 34.6235 172.286Z" fill="black"/>
<path d="M122.334 158.085C127.774 147.805 142.044 146.155 152.364 148.565C159.857 150.319 164.7 154.292 166.894 160.485C167.754 162.925 168.18 166.532 168.174 171.305C168.12 200.392 168.067 229.142 168.014 257.555C168.014 260.062 167.2 262.809 165.574 265.795C160.444 275.185 147.274 276.805 137.834 275.275C125.794 273.325 120.024 265.925 120.044 254.035C120.084 224.615 120.104 195.529 120.104 166.775C120.104 163.795 120.847 160.899 122.334 158.085ZM149.574 167.715C149.574 166.355 149.033 165.05 148.071 164.088C147.109 163.126 145.804 162.585 144.444 162.585H143.724C142.363 162.585 141.058 163.126 140.096 164.088C139.134 165.05 138.594 166.355 138.594 167.715V255.735C138.594 257.096 139.134 258.401 140.096 259.363C141.058 260.325 142.363 260.865 143.724 260.865H144.444C145.804 260.865 147.109 260.325 148.071 259.363C149.033 258.401 149.574 257.096 149.574 255.735V167.715Z" fill="black"/>
<path d="M293.253 239.536C293.063 233.716 288.843 227.036 285.043 222.386C280.983 217.426 276.973 212.452 273.013 207.466C268.043 201.226 263.503 193.396 263.783 184.876C263.917 180.702 263.917 176.486 263.783 172.226C263.617 167.299 264.02 163.456 264.993 160.696C267.3 154.122 272.304 150.042 280.003 148.456C287.97 146.816 295.183 147.499 301.643 150.506C309.483 154.156 312.043 161.516 311.913 170.076C311.787 178.429 311.773 186.412 311.873 194.026C311.88 194.419 311.687 194.616 311.293 194.616H293.883C293.523 194.616 293.343 194.436 293.343 194.076C293.303 186.156 293.313 178.086 293.373 169.866C293.383 167.226 292.933 163.436 289.783 162.796C283.413 161.486 282.173 165.666 282.303 170.816C282.403 175.069 282.39 179.272 282.263 183.426C282.133 187.626 284.813 191.766 287.233 194.966C291.573 200.686 296.08 206.476 300.753 212.336C304.227 216.689 307.143 221.019 309.503 225.326C310.753 227.606 311.833 230.366 311.833 232.996C311.827 241.909 311.82 249.886 311.813 256.926C311.813 259.766 310.97 262.742 309.283 265.856C304.273 275.066 291.313 276.726 282.033 275.356C270.863 273.696 263.733 266.726 263.803 255.066C263.857 245.752 263.86 236.376 263.813 226.936C263.812 226.861 263.826 226.787 263.853 226.718C263.881 226.649 263.922 226.586 263.974 226.533C264.026 226.48 264.088 226.438 264.157 226.409C264.225 226.38 264.299 226.366 264.373 226.366H281.803C282.183 226.366 282.37 226.556 282.363 226.936C282.283 235.349 282.293 244.562 282.393 254.576C282.44 259.276 284.65 261.339 289.023 260.766C291.737 260.412 293.14 258.596 293.233 255.316C293.407 249.662 293.413 244.402 293.253 239.536Z" fill="black"/>
<path d="M389.833 273.216C381.783 269.706 378.763 262.456 378.783 254.026C378.883 225.799 378.87 197.886 378.743 170.286C378.723 166.259 379.253 162.819 380.333 159.966C384.803 148.096 400.343 145.946 411.323 148.586C421.803 151.119 427.05 157.973 427.063 169.146C427.103 197.979 427.1 226.683 427.053 255.256C427.047 260.389 425.583 264.736 422.663 268.296C415.363 277.186 399.153 277.266 389.833 273.216ZM408.333 167.716C408.333 166.35 407.791 165.04 406.825 164.074C405.859 163.108 404.549 162.566 403.183 162.566H402.503C401.827 162.566 401.157 162.699 400.533 162.958C399.908 163.217 399.34 163.596 398.862 164.074C398.384 164.553 398.004 165.12 397.745 165.745C397.487 166.37 397.353 167.04 397.353 167.716V255.716C397.353 257.082 397.896 258.392 398.862 259.358C399.828 260.323 401.138 260.866 402.503 260.866H403.183C404.549 260.866 405.859 260.323 406.825 259.358C407.791 258.392 408.333 257.082 408.333 255.716V167.716Z" fill="black"/>
<path d="M91.2635 213.616H81.9035C81.8186 213.616 81.7372 213.649 81.6772 213.709C81.6172 213.769 81.5835 213.851 81.5835 213.936V273.046C81.5835 273.131 81.5498 273.212 81.4898 273.272C81.4298 273.332 81.3484 273.366 81.2635 273.366H63.4035C63.3186 273.366 63.2372 273.332 63.1772 273.272C63.1172 273.212 63.0835 273.131 63.0835 273.046V150.436C63.0835 150.351 63.1172 150.269 63.1772 150.209C63.2372 150.149 63.3186 150.116 63.4035 150.116H81.2635C81.3484 150.116 81.4298 150.149 81.4898 150.209C81.5498 150.269 81.5835 150.351 81.5835 150.436V196.796C81.5835 196.881 81.6172 196.962 81.6772 197.022C81.7372 197.082 81.8186 197.116 81.9035 197.116H91.2635C91.3484 197.116 91.4298 197.082 91.4898 197.022C91.5498 196.962 91.5835 196.881 91.5835 196.796V150.436C91.5835 150.351 91.6172 150.269 91.6772 150.209C91.7372 150.149 91.8186 150.116 91.9035 150.116H109.763C109.848 150.116 109.93 150.149 109.99 150.209C110.05 150.269 110.083 150.351 110.083 150.436V273.046C110.083 273.131 110.05 273.212 109.99 273.272C109.93 273.332 109.848 273.366 109.763 273.366H91.9035C91.8186 273.366 91.7372 273.332 91.6772 273.272C91.6172 273.212 91.5835 273.131 91.5835 273.046V213.936C91.5835 213.851 91.5498 213.769 91.4898 213.709C91.4298 213.649 91.3484 213.616 91.2635 213.616Z" fill="black"/>
<path d="M196.083 226.816V272.866C196.083 273.199 195.917 273.366 195.583 273.366H177.833C177.667 273.366 177.583 273.283 177.583 273.116V150.666C177.583 150.346 177.743 150.186 178.063 150.186C186.343 150.066 194.403 150.083 202.243 150.236C204.41 150.276 206.77 150.603 209.324 151.216C222.544 154.386 225.753 163.016 225.643 176.006C225.557 186.159 225.537 195.313 225.583 203.466C225.643 215.576 218.813 225.616 205.833 226.066C202.847 226.166 199.857 226.166 196.863 226.066C196.343 226.046 196.083 226.296 196.083 226.816ZM206.803 207.666C206.99 207.146 207.083 206.609 207.083 206.056C207.123 194.236 207.107 183.566 207.033 174.046C207.02 172.599 206.817 171.203 206.423 169.856C204.873 164.616 200.963 165.036 196.623 165.106C196.263 165.113 196.083 165.293 196.083 165.646V210.576C196.083 210.889 196.24 211.059 196.553 211.086C199.843 211.366 205.483 211.286 206.803 207.666Z" fill="black"/>
<path d="M350.333 196.786V150.446C350.333 150.358 350.368 150.274 350.43 150.213C350.492 150.151 350.576 150.116 350.663 150.116H368.504C368.591 150.116 368.675 150.151 368.737 150.213C368.799 150.274 368.833 150.358 368.833 150.446V273.036C368.833 273.123 368.799 273.207 368.737 273.269C368.675 273.331 368.591 273.366 368.504 273.366H350.663C350.576 273.366 350.492 273.331 350.43 273.269C350.368 273.207 350.333 273.123 350.333 273.036V213.946C350.333 213.858 350.299 213.774 350.237 213.713C350.175 213.651 350.091 213.616 350.004 213.616H340.663C340.576 213.616 340.492 213.651 340.43 213.713C340.368 213.774 340.333 213.858 340.333 213.946V273.036C340.333 273.123 340.299 273.207 340.237 273.269C340.175 273.331 340.091 273.366 340.004 273.366H322.163C322.076 273.366 321.992 273.331 321.93 273.269C321.868 273.207 321.833 273.123 321.833 273.036V150.446C321.833 150.358 321.868 150.274 321.93 150.213C321.992 150.151 322.076 150.116 322.163 150.116L340.004 150.106C340.091 150.106 340.175 150.141 340.237 150.203C340.299 150.264 340.333 150.348 340.333 150.436V196.786C340.333 196.873 340.368 196.957 340.43 197.019C340.492 197.081 340.576 197.116 340.663 197.116H350.004C350.091 197.116 350.175 197.081 350.237 197.019C350.299 196.957 350.333 196.873 350.333 196.786Z" fill="black"/>
<path d="M455.083 226.816V272.866C455.083 272.998 455.031 273.125 454.937 273.219C454.843 273.313 454.716 273.366 454.583 273.366H436.583C436.52 273.366 436.459 273.339 436.414 273.292C436.369 273.245 436.344 273.182 436.344 273.116L436.333 150.666C436.333 150.292 436.52 150.106 436.893 150.106C443.773 150.119 450.81 150.119 458.004 150.106C470.194 150.086 481.754 153.916 483.974 167.436C484.364 169.816 484.583 172.226 484.583 174.626C484.59 183.046 484.587 191.906 484.573 201.206C484.553 212.076 481.004 222.586 469.314 225.406C464.964 226.456 460.344 226.086 455.814 226.086C455.327 226.086 455.083 226.329 455.083 226.816ZM465.773 172.856C465.713 165.956 461.423 164.716 455.573 165.136C455.247 165.156 455.083 165.329 455.083 165.656V210.566C455.083 210.886 455.244 211.059 455.564 211.086C459.334 211.406 465.783 211.196 465.803 206.186C465.87 194.566 465.86 183.456 465.773 172.856Z" fill="black"/>
<path d="M226.854 314.006C223.464 311.846 219.064 309.126 216.724 305.876C216.653 305.779 216.609 305.665 216.596 305.546C216.583 305.427 216.601 305.307 216.648 305.197C216.695 305.087 216.771 304.991 216.866 304.919C216.962 304.847 217.075 304.801 217.194 304.786C221.014 304.312 224.747 304.059 228.394 304.026C228.741 304.023 229.081 303.917 229.37 303.721C229.66 303.526 229.887 303.249 230.024 302.926C231.564 299.252 233.34 295.686 235.354 292.226C235.914 291.259 236.527 291.222 237.194 292.116C239.444 295.156 240.644 300.136 242.014 303.816C242.136 304.148 242.366 304.429 242.667 304.616C242.967 304.802 243.322 304.883 243.674 304.846C247.594 304.432 251.423 304.466 255.163 304.946C255.351 304.97 255.526 305.05 255.668 305.174C255.809 305.299 255.911 305.462 255.959 305.645C256.007 305.827 256 306.02 255.939 306.198C255.877 306.376 255.764 306.532 255.614 306.646L246.634 313.416C245.207 314.496 244.8 315.872 245.414 317.546C246.614 320.846 247.873 324.066 248.603 327.416C248.683 327.782 248.594 328.106 248.334 328.386C247.647 329.126 246.87 329.159 246.004 328.486C243.01 326.146 240.07 323.982 237.184 321.996C236.077 321.236 235 321.276 233.954 322.116C230.78 324.662 227.54 326.896 224.234 328.816C224.131 328.876 224.014 328.908 223.895 328.909C223.775 328.909 223.658 328.877 223.555 328.817C223.453 328.757 223.368 328.67 223.309 328.566C223.251 328.463 223.221 328.345 223.224 328.226C223.284 323.796 225.574 319.156 227.174 314.986C227.334 314.572 227.227 314.246 226.854 314.006Z" fill="black"/>
<path d="M78.6257 311.147C78.5756 312.395 78.2742 313.62 77.7388 314.753C77.2034 315.887 76.4445 316.905 75.5053 317.752C74.5661 318.598 73.4651 319.254 72.2652 319.685C71.0653 320.115 69.7898 320.31 68.5118 320.258C65.9307 320.155 63.4955 319.054 61.7419 317.199C59.9884 315.343 59.0601 312.885 59.1613 310.365C59.2114 309.117 59.5128 307.892 60.0482 306.758C60.5836 305.625 61.3425 304.606 62.2817 303.76C63.2209 302.914 64.3219 302.257 65.5218 301.827C66.7217 301.397 67.9972 301.202 69.2752 301.254C71.8563 301.357 74.2915 302.458 76.0451 304.313C77.7986 306.169 78.7269 308.627 78.6257 311.147ZM68.9072 315.896C69.5021 315.889 70.0897 315.751 70.6366 315.487C71.1835 315.224 71.6789 314.84 72.0945 314.36C72.5102 313.879 72.8379 313.31 73.059 312.685C73.2802 312.06 73.3903 311.392 73.3833 310.719C73.3762 310.045 73.2521 309.379 73.0179 308.759C72.7838 308.139 72.4442 307.577 72.0186 307.105C71.593 306.633 71.0896 306.261 70.5374 306.009C69.9851 305.757 69.3947 305.63 68.7998 305.636C68.2049 305.642 67.6173 305.781 67.0704 306.045C66.5235 306.308 66.0281 306.691 65.6125 307.172C65.1968 307.653 64.8691 308.222 64.648 308.847C64.4268 309.471 64.3166 310.14 64.3237 310.813C64.3307 311.487 64.4549 312.153 64.6891 312.773C64.9232 313.393 65.2628 313.955 65.6884 314.427C66.114 314.899 66.6174 315.271 67.1696 315.523C67.7219 315.775 68.3123 315.902 68.9072 315.896Z" fill="black"/>
<path d="M162.943 310.722C162.952 313.247 161.936 315.672 160.117 317.463C158.299 319.255 155.827 320.267 153.247 320.276C150.666 320.285 148.188 319.29 146.357 317.511C144.526 315.732 143.492 313.315 143.484 310.79C143.475 308.265 144.491 305.84 146.31 304.048C148.128 302.257 150.6 301.245 153.18 301.236C155.761 301.227 158.239 302.221 160.07 304C161.901 305.779 162.935 308.197 162.943 310.722ZM153.159 315.866C154.365 315.876 155.527 315.347 156.389 314.394C157.251 313.441 157.741 312.143 157.753 310.786C157.765 309.428 157.297 308.121 156.452 307.154C155.607 306.186 154.455 305.637 153.248 305.626C152.041 305.615 150.88 306.145 150.018 307.098C149.156 308.05 148.666 309.348 148.654 310.706C148.642 312.064 149.11 313.37 149.955 314.338C150.8 315.306 151.952 315.855 153.159 315.866Z" fill="black"/>
<path d="M340.034 313.116H336.344C336.004 313.122 335.834 312.956 335.834 312.616L335.804 309.626C335.804 309.286 335.977 309.116 336.324 309.116H345.024C345.21 309.116 345.389 309.188 345.522 309.317C345.655 309.446 345.731 309.622 345.734 309.806C345.824 314.856 343.864 319.236 338.294 320.016C333.1 320.749 329.517 319.046 327.544 314.906C325.124 309.826 327.414 303.466 332.884 301.826C337.43 300.466 341.24 301.516 344.314 304.976C344.362 305.029 344.397 305.094 344.416 305.164C344.435 305.234 344.437 305.307 344.422 305.379C344.408 305.45 344.377 305.518 344.332 305.576C344.287 305.635 344.229 305.683 344.164 305.716L340.484 307.526C340.224 307.652 339.987 307.616 339.774 307.416C339.234 306.906 338.754 306.256 338.024 305.996C333.264 304.316 331.134 308.646 331.934 312.636C332.784 316.876 338.414 317.556 340.484 313.886C340.777 313.372 340.627 313.116 340.034 313.116Z" fill="black"/>
<path d="M45.2135 315.356H50.4635C50.5616 315.356 50.6557 315.395 50.7251 315.464C50.7945 315.533 50.8335 315.628 50.8335 315.726L50.8435 319.496C50.8435 319.594 50.8045 319.688 50.7351 319.757C50.6657 319.827 50.5716 319.866 50.4735 319.866H39.9435C39.8453 319.866 39.7512 319.827 39.6818 319.757C39.6125 319.688 39.5735 319.594 39.5735 319.496L39.5635 301.986C39.5635 301.888 39.6025 301.793 39.6718 301.724C39.7412 301.655 39.8353 301.616 39.9335 301.616H44.4635C44.5616 301.616 44.6557 301.655 44.7251 301.724C44.7945 301.793 44.8335 301.888 44.8335 301.986L44.8435 314.986C44.8435 315.034 44.853 315.082 44.8716 315.127C44.8902 315.172 44.9175 315.213 44.9518 315.247C44.9862 315.282 45.027 315.309 45.0719 315.328C45.1168 315.346 45.1649 315.356 45.2135 315.356Z" fill="black"/>
<path d="M101.603 312.236L101.553 301.886C101.553 301.712 101.64 301.626 101.813 301.626H106.333C106.5 301.626 106.583 301.706 106.583 301.866V319.366C106.583 319.699 106.417 319.866 106.083 319.866H102.103C101.837 319.866 101.623 319.756 101.463 319.536L94.1535 309.516C93.9335 309.209 93.8235 309.246 93.8235 309.626L93.8435 319.356C93.8502 319.696 93.6835 319.866 93.3435 319.866H89.3335C89.2009 319.866 89.0737 319.813 88.9799 319.719C88.8862 319.626 88.8335 319.498 88.8335 319.366V302.116C88.8335 301.782 89.0002 301.616 89.3335 301.616H93.2535C93.6135 301.616 93.9002 301.762 94.1135 302.056L101.523 312.256C101.577 312.329 101.603 312.322 101.603 312.236Z" fill="black"/>
<path d="M117.514 301.916C117.514 301.842 117.543 301.77 117.596 301.718C117.648 301.665 117.719 301.636 117.794 301.636L124.894 301.596C126.092 301.589 127.281 301.806 128.39 302.234C129.5 302.662 130.51 303.293 131.362 304.091C132.213 304.889 132.89 305.838 133.354 306.883C133.818 307.929 134.059 309.052 134.064 310.186V311.146C134.073 313.433 133.124 315.63 131.423 317.256C129.723 318.881 127.41 319.802 124.994 319.816L117.894 319.856C117.819 319.856 117.748 319.826 117.696 319.774C117.643 319.721 117.614 319.65 117.614 319.576L117.514 301.916ZM122.814 306.206L122.854 315.226C122.854 315.316 122.889 315.402 122.953 315.466C123.017 315.53 123.103 315.566 123.194 315.566H124.144C125.398 315.56 126.599 315.069 127.482 314.198C128.366 313.328 128.859 312.151 128.854 310.926V310.466C128.851 309.859 128.726 309.259 128.486 308.699C128.246 308.14 127.895 307.632 127.454 307.205C127.013 306.778 126.49 306.44 125.915 306.21C125.34 305.98 124.725 305.863 124.104 305.866H123.154C123.063 305.866 122.977 305.902 122.913 305.965C122.849 306.029 122.814 306.116 122.814 306.206Z" fill="black"/>
<path d="M178.083 309.466L178.104 319.356C178.104 319.689 177.933 319.856 177.593 319.856L173.583 319.866C173.25 319.866 173.083 319.699 173.083 319.366V302.246C173.083 301.826 173.294 301.616 173.714 301.616L177.393 301.626C177.887 301.626 178.28 301.822 178.574 302.216L185.703 312.016C185.977 312.389 186.113 312.346 186.113 311.886L186.074 301.876C186.074 301.702 186.157 301.616 186.324 301.616L190.593 301.626C190.753 301.626 190.833 301.709 190.833 301.876L190.843 319.116C190.843 319.616 190.59 319.866 190.083 319.866H186.553C186.393 319.866 186.234 319.827 186.09 319.752C185.945 319.678 185.82 319.569 185.723 319.436L178.404 309.356C178.19 309.069 178.083 309.106 178.083 309.466Z" fill="black"/>
<path d="M286.243 308.616H291.453C291.557 308.616 291.656 308.657 291.729 308.73C291.802 308.803 291.844 308.902 291.844 309.006L291.853 312.466C291.853 312.569 291.812 312.668 291.739 312.741C291.666 312.815 291.567 312.856 291.464 312.856L286.233 312.876C286.13 312.876 286.031 312.917 285.958 312.99C285.885 313.063 285.844 313.162 285.844 313.266L285.833 315.226C285.833 315.329 285.875 315.428 285.948 315.501C286.021 315.575 286.12 315.616 286.224 315.616H291.703C291.807 315.616 291.906 315.657 291.979 315.73C292.052 315.803 292.094 315.902 292.094 316.006L292.103 319.466C292.103 319.569 292.062 319.668 291.989 319.741C291.916 319.815 291.817 319.856 291.714 319.856L281.224 319.866C281.12 319.866 281.021 319.825 280.948 319.751C280.875 319.678 280.833 319.579 280.833 319.476L280.823 302.006C280.823 301.902 280.865 301.803 280.938 301.73C281.011 301.657 281.11 301.616 281.214 301.616H291.703C291.807 301.616 291.906 301.657 291.979 301.73C292.052 301.803 292.094 301.902 292.094 302.006L292.103 305.456C292.103 305.559 292.062 305.658 291.989 305.732C291.916 305.805 291.817 305.846 291.714 305.846L286.214 305.886C286.112 305.888 286.015 305.931 285.944 306.003C285.873 306.076 285.833 306.174 285.833 306.276L285.853 308.236C285.856 308.337 285.898 308.434 285.971 308.505C286.044 308.576 286.142 308.616 286.243 308.616Z" fill="black"/>
<path d="M313.323 312.096L313.344 301.866C313.344 301.699 313.423 301.616 313.583 301.616L318.083 301.626C318.25 301.626 318.333 301.706 318.333 301.866V319.366C318.333 319.699 318.167 319.866 317.833 319.866H314.043C313.71 319.866 313.437 319.736 313.224 319.476C310.604 316.182 308.207 312.829 306.034 309.416C305.714 308.916 305.553 308.966 305.553 309.566L305.594 319.366C305.594 319.699 305.427 319.866 305.094 319.866H301.203C301.036 319.863 300.875 319.796 300.757 319.678C300.64 319.56 300.574 319.401 300.573 319.236V302.126C300.573 301.792 300.74 301.626 301.073 301.626L304.993 301.616C305.36 301.616 305.65 301.762 305.863 302.056L313.124 312.156C313.257 312.336 313.323 312.316 313.323 312.096Z" fill="black"/>
<path d="M359.413 315.366H364.773C364.858 315.366 364.94 315.399 365 315.459C365.06 315.519 365.094 315.601 365.094 315.686L365.113 319.536C365.113 319.621 365.08 319.702 365.02 319.762C364.96 319.822 364.878 319.856 364.793 319.856L354.154 319.866C354.069 319.866 353.987 319.832 353.927 319.772C353.867 319.712 353.833 319.631 353.833 319.546V301.936C353.833 301.851 353.867 301.769 353.927 301.709C353.987 301.649 354.069 301.616 354.154 301.616L358.773 301.626C358.858 301.626 358.94 301.659 359 301.719C359.06 301.779 359.094 301.861 359.094 301.946V315.046C359.094 315.131 359.127 315.212 359.187 315.272C359.247 315.332 359.329 315.366 359.413 315.366Z" fill="black"/>
<path d="M383.043 316.616L376.974 316.636C376.885 316.637 376.799 316.667 376.728 316.721C376.658 316.775 376.607 316.85 376.583 316.936L375.843 319.546C375.82 319.631 375.769 319.707 375.698 319.761C375.628 319.815 375.542 319.845 375.453 319.846L371.093 319.866C371.027 319.866 370.962 319.851 370.903 319.821C370.844 319.791 370.793 319.747 370.754 319.693C370.716 319.639 370.691 319.576 370.683 319.511C370.674 319.445 370.681 319.378 370.703 319.316L376.724 301.896C376.751 301.814 376.803 301.743 376.873 301.693C376.943 301.642 377.027 301.615 377.113 301.616L382.873 301.626C382.96 301.625 383.044 301.652 383.114 301.703C383.184 301.753 383.236 301.824 383.263 301.906L389.303 319.326C389.326 319.388 389.333 319.455 389.324 319.521C389.316 319.586 389.291 319.649 389.253 319.703C389.214 319.757 389.163 319.801 389.104 319.831C389.045 319.861 388.98 319.876 388.913 319.876L384.573 319.856C384.485 319.855 384.399 319.825 384.328 319.771C384.258 319.717 384.207 319.641 384.183 319.556L383.433 316.916C383.41 316.83 383.359 316.755 383.289 316.701C383.218 316.647 383.132 316.617 383.043 316.616ZM379.583 306.866L378.053 312.126C377.907 312.626 378.09 312.872 378.603 312.866L381.413 312.856C381.98 312.856 382.177 312.589 382.003 312.056L380.363 306.856C380.097 306.002 379.837 306.006 379.583 306.866Z" fill="black"/>
<path d="M401.163 309.446C401.43 312.626 401.467 316.029 401.273 319.656C401.271 319.712 401.247 319.766 401.206 319.805C401.165 319.844 401.11 319.866 401.053 319.866H396.583C396.417 319.866 396.333 319.782 396.333 319.616V302.116C396.333 301.789 396.5 301.626 396.833 301.626L400.594 301.616C401.007 301.616 401.337 301.782 401.583 302.116L408.684 311.796C408.964 312.182 409.103 312.136 409.103 311.656L409.073 301.866C409.073 301.699 409.16 301.616 409.333 301.616L413.844 301.626C413.91 301.626 413.973 301.652 414.02 301.699C414.067 301.746 414.094 301.809 414.094 301.876L414.103 319.106C414.103 319.612 413.85 319.866 413.344 319.866H409.754C409.327 319.866 408.987 319.692 408.733 319.346L401.534 309.306C401.247 308.912 401.123 308.959 401.163 309.446Z" fill="black"/>
<path d="M423.083 301.975C423.083 301.888 423.118 301.804 423.18 301.742C423.242 301.68 423.326 301.646 423.413 301.646H430.643C432.951 301.646 435.164 302.497 436.795 304.012C438.427 305.527 439.344 307.583 439.344 309.725V311.725C439.344 313.868 438.427 315.924 436.795 317.439C435.164 318.954 432.951 319.806 430.643 319.806H423.413C423.326 319.806 423.242 319.771 423.18 319.709C423.118 319.647 423.083 319.563 423.083 319.475V301.975ZM428.094 306.135L428.073 315.276C428.072 315.316 428.079 315.356 428.093 315.393C428.108 315.431 428.13 315.465 428.158 315.494C428.186 315.523 428.219 315.546 428.256 315.562C428.293 315.577 428.333 315.586 428.374 315.586H429.523C430.15 315.587 430.77 315.467 431.35 315.233C431.929 314.999 432.456 314.656 432.899 314.222C433.343 313.788 433.696 313.273 433.937 312.706C434.178 312.138 434.302 311.53 434.303 310.915V310.536C434.306 309.294 433.806 308.103 432.913 307.223C432.021 306.344 430.809 305.848 429.543 305.846H428.393C428.316 305.845 428.241 305.876 428.185 305.93C428.129 305.984 428.096 306.058 428.094 306.135Z" fill="black"/>
</svg>
