<svg width="271" height="203" viewBox="0 0 271 203" fill="none" xmlns="http://www.w3.org/2000/svg">
<path d="M224.007 13.1122C223.097 11.9922 222.117 11.1522 221.477 9.81223C220.537 7.88223 220.337 4.76223 222.457 3.41223C225.151 1.68557 227.914 1.54223 230.747 2.98223C231.214 3.21512 231.587 3.59555 231.807 4.06223C234.827 10.3622 232.037 16.7122 225.367 18.6222C223.107 19.2689 222.451 18.5189 223.397 16.3722L224.197 14.5522C224.3 14.3167 224.336 14.0581 224.303 13.8044C224.269 13.5506 224.167 13.3112 224.007 13.1122Z" fill="black"/>
<path d="M109.827 88.2022L109.517 88.1222C109.097 88.0022 108.704 88.0655 108.337 88.3122C100.937 93.2788 95.634 95.5122 92.4274 95.0122C84.0074 93.7022 88.9474 77.3922 90.4274 72.6522C90.6274 72.0122 90.4307 71.8522 89.8373 72.1722C88.4073 72.9322 85.4373 74.2122 85.7473 76.2322C87.5473 88.1522 82.4873 103.082 69.4073 105.362C61.6073 106.722 55.7473 101.162 55.0673 93.6822C54.1773 83.8222 58.8173 71.1522 68.6073 67.2422C72.8873 65.5288 76.8407 65.7888 80.4673 68.0222C80.6372 68.1261 80.8329 68.1786 81.0301 68.1733C81.2274 68.168 81.4176 68.105 81.5773 67.9922C81.804 67.8388 81.914 67.6255 81.9073 67.3522C81.894 67.1055 81.794 66.8988 81.6073 66.7322C80.3973 65.6722 78.8273 63.7422 79.4173 62.0222C81.0773 57.2522 87.3074 61.0222 89.5674 62.7822C90.0903 63.1897 90.7541 63.3732 91.4149 63.2927C92.0757 63.2122 92.6802 62.8743 93.0974 62.3522L95.5674 59.2522C95.8007 58.9522 96.094 58.7388 96.4473 58.6122C99.0473 57.6788 101.621 56.9422 104.167 56.4022C104.271 56.3791 104.38 56.3836 104.481 56.4154C104.583 56.4471 104.675 56.5049 104.748 56.5833C104.822 56.6617 104.874 56.758 104.9 56.8629C104.926 56.9677 104.925 57.0777 104.897 57.1822C102.484 65.6022 100.657 73.1855 99.4173 79.9322C99.2307 80.9522 99.1773 81.9955 99.2573 83.0622C99.2722 83.2668 99.3301 83.4659 99.4271 83.6467C99.5241 83.8274 99.6581 83.9857 99.8204 84.1112C99.9827 84.2367 100.17 84.3266 100.369 84.375C100.568 84.4234 100.776 84.4292 100.977 84.3922C102.824 84.0588 104.031 83.0555 104.597 81.3822C104.717 81.0155 104.694 80.6588 104.527 80.3122C102.961 77.0455 102.544 73.5055 103.277 69.6922C105.037 60.5722 109.847 54.2455 117.707 50.7122C121.167 49.1522 124.474 48.8988 127.627 49.9522C128.001 50.0722 128.314 49.9855 128.567 49.6922C128.961 49.2455 129.267 48.7322 129.487 48.1522C129.577 47.9099 129.723 47.6917 129.912 47.5147C130.101 47.3378 130.329 47.2068 130.577 47.1322L139.227 44.4522C139.337 44.4169 139.454 44.4118 139.566 44.4372C139.678 44.4627 139.781 44.5179 139.866 44.5971C139.95 44.6764 140.012 44.7769 140.046 44.8885C140.08 45 140.083 45.1186 140.057 45.2322L133.587 72.2622C133.274 73.5555 133.684 73.8522 134.817 73.1522L138.927 70.6022C139.142 70.468 139.309 70.2699 139.404 70.0364C139.499 69.8029 139.518 69.5459 139.457 69.3022C137.524 61.3422 138.884 53.9755 143.537 47.2022C148.077 40.5922 155.897 36.5922 163.627 39.2622C163.761 39.3094 163.903 39.3267 164.043 39.3127C164.184 39.2987 164.32 39.2538 164.441 39.1812C164.563 39.1086 164.666 39.0101 164.745 38.8927C164.824 38.7753 164.876 38.642 164.897 38.5022C165.051 37.5422 165.377 36.6355 165.877 35.7822C166.045 35.5052 166.308 35.299 166.617 35.2022L175.847 32.3422C175.911 32.3218 175.979 32.3189 176.044 32.3339C176.109 32.3489 176.168 32.3811 176.216 32.4272C176.265 32.4733 176.299 32.5315 176.317 32.5958C176.335 32.66 176.335 32.7279 176.317 32.7922L169.967 58.3522C169.621 59.7522 169.987 59.9755 171.067 59.0222C172.367 57.8622 173.421 56.3388 174.227 54.4522C176.354 49.4988 178.471 44.2688 180.577 38.7622C182.657 33.3022 189.647 21.6922 197.217 27.0522C197.516 27.2627 197.884 27.35 198.245 27.296C198.607 27.242 198.933 27.0508 199.157 26.7622C202.597 22.3488 207.014 20.0188 212.407 19.7722C219.737 19.4322 219.817 26.5722 218.197 31.6422C216.724 36.2555 215.501 40.6388 214.527 44.7922C214.074 46.7522 214.657 47.1355 216.277 45.9422C217.611 44.9555 218.854 43.7055 220.007 42.1922C220.24 41.8947 220.36 41.5265 220.347 41.1522C220.277 38.9422 220.227 36.7822 222.217 35.3422C222.417 35.1955 223.377 34.8722 225.097 34.3722C226.851 33.8588 228.214 32.8122 229.187 31.2322C231.847 26.8822 234.567 23.0622 236.587 18.6122C238.527 14.3522 235.047 8.02217 241.757 6.87217C246.307 6.09217 248.077 10.0222 247.367 13.9922C247.187 15.0388 247.347 16.0055 247.847 16.8922C254.557 28.7122 252.337 47.8822 234.967 47.7822C233.007 47.7722 231.167 47.2122 229.267 46.6522C228.877 46.5385 228.462 46.5413 228.071 46.6602C227.681 46.7791 227.332 47.0091 227.067 47.3222C223.137 52.0022 216.727 56.6622 210.397 57.4622C205.937 58.0322 203.727 54.1522 203.707 50.0522C203.677 43.9322 205.727 39.1922 207.047 33.3922C207.111 33.1128 207.098 32.8216 207.012 32.5485C206.925 32.2755 206.767 32.0305 206.554 31.8389C206.341 31.6473 206.081 31.516 205.8 31.4586C205.519 31.4012 205.228 31.4197 204.957 31.5122C200.767 32.9422 199.127 41.2422 198.207 45.1022C196.847 50.8488 195.531 56.2888 194.257 61.4222C194.174 61.7495 194.01 62.0505 193.779 62.2971C193.548 62.5436 193.259 62.7277 192.937 62.8322L184.607 65.5322C184.461 65.5799 184.304 65.5875 184.154 65.5541C184.004 65.5207 183.865 65.4476 183.753 65.3423C183.641 65.2371 183.558 65.1036 183.515 64.9558C183.472 64.808 183.469 64.6514 183.507 64.5022L188.017 46.1222C188.043 46.0269 188.032 45.9251 187.986 45.8365C187.939 45.7479 187.862 45.6787 187.767 45.6422L187.487 45.5422C187.374 45.4955 187.294 45.5288 187.247 45.6422C183.367 54.9022 177.867 74.7922 163.627 71.4322C163.297 71.353 162.952 71.3591 162.625 71.4501C162.298 71.5411 161.999 71.7139 161.757 71.9522C157.324 76.3388 152.384 77.7422 146.937 76.1622C146.444 76.0211 145.917 76.0786 145.467 76.3222C141.367 78.5222 137.251 80.8722 133.117 83.3722C130.887 84.7122 129.607 86.5722 129.027 89.0522C126.927 98.0122 124.507 107.019 121.767 116.072C120.147 121.442 116.927 124.762 111.157 125.642C98.7873 127.542 91.8574 117.992 96.3474 106.592C98.9874 99.8855 103.501 93.8388 109.887 88.4522C110.027 88.3322 110.007 88.2488 109.827 88.2022ZM241.257 34.8522C241.324 34.7467 241.366 34.6267 241.377 34.5022L242.037 29.1322C242.06 28.9509 242.019 28.7673 241.922 28.6127C241.825 28.4581 241.677 28.342 241.503 28.2842C241.33 28.2264 241.142 28.2305 240.971 28.2958C240.801 28.3611 240.658 28.4835 240.567 28.6422L235.287 37.7522C235.204 37.8931 235.167 38.0563 235.181 38.2193C235.194 38.3823 235.258 38.537 235.364 38.6621C235.469 38.7872 235.611 38.8765 235.769 38.9177C235.927 38.9589 236.094 38.95 236.247 38.8922L239.067 37.8422C239.222 37.7844 239.355 37.6795 239.447 37.5422L241.257 34.8522ZM151.878 65.8891C153.206 66.349 154.801 65.8623 156.312 64.5359C157.823 63.2095 159.127 61.1522 159.936 58.8165C160.744 56.4807 160.992 54.058 160.625 52.0811C160.258 50.1042 159.305 48.7352 157.977 48.2753C156.649 47.8153 155.054 48.302 153.542 49.6284C152.031 50.9548 150.728 53.0121 149.919 55.3479C149.11 57.6836 148.862 60.1064 149.23 62.0833C149.597 64.0601 150.549 65.4291 151.878 65.8891ZM116.338 76.967C117.624 77.4099 119.17 76.9292 120.635 75.6306C122.099 74.332 123.363 72.3218 124.148 70.0424C124.536 68.9137 124.796 67.7529 124.911 66.6261C125.026 65.4994 124.995 64.4289 124.82 63.4757C124.644 62.5225 124.327 61.7053 123.888 61.0708C123.448 60.4362 122.894 59.9967 122.257 59.7774C120.97 59.3344 119.425 59.8151 117.96 61.1138C116.496 62.4124 115.232 64.4225 114.447 66.702C114.058 67.8307 113.799 68.9915 113.684 70.1182C113.568 71.2449 113.599 72.3154 113.775 73.2686C113.95 74.2218 114.267 75.039 114.707 75.6736C115.147 76.3082 115.701 76.7476 116.338 76.967ZM67.5905 94.304C68.2907 94.5329 69.0585 94.5318 69.8501 94.301C70.6416 94.0701 71.4414 93.6139 72.2037 92.9584C72.966 92.3029 73.6759 91.461 74.2929 90.4807C74.9099 89.5004 75.4219 88.4009 75.7997 87.2451C76.1775 86.0892 76.4137 84.8996 76.4948 83.7441C76.5758 82.5886 76.5002 81.49 76.2722 80.5108C76.0442 79.5316 75.6683 78.6911 75.1659 78.0374C74.6635 77.3836 74.0445 76.9293 73.3443 76.7004C72.644 76.4715 71.8762 76.4725 71.0846 76.7034C70.2931 76.9342 69.4933 77.3904 68.731 78.0459C67.9687 78.7014 67.2588 79.5433 66.6418 80.5236C66.0248 81.5039 65.5127 82.6034 65.1349 83.7593C64.7571 84.9151 64.521 86.1048 64.4399 87.2602C64.3588 88.4157 64.4345 89.5144 64.6625 90.4936C64.8905 91.4727 65.2664 92.3132 65.7688 92.967C66.2712 93.6208 66.8902 94.0751 67.5905 94.304ZM113.477 109.512C115.071 104.512 116.397 100.006 117.457 95.9922C117.751 94.8855 117.464 94.7055 116.597 95.4522C112.097 99.3222 105.927 105.752 105.507 111.952C105.367 114.012 107.027 115.322 109.017 114.962C111.587 114.502 112.757 111.772 113.477 109.512Z" fill="black"/>
<path d="M72.2074 133.442C74.1874 132.616 76.0674 131.536 77.8474 130.202C82.3574 126.832 84.0874 120.802 78.5074 117.392C70.8474 112.722 58.7574 120.032 51.8074 123.562C51.5084 123.715 51.1806 123.803 50.8453 123.82C50.5101 123.837 50.175 123.784 49.8618 123.663C49.5485 123.542 49.2643 123.357 49.0275 123.119C48.7907 122.881 48.6067 122.596 48.4874 122.282C47.7808 120.416 48.3974 118.662 50.3374 117.022C58.0908 110.449 66.7307 106.966 76.2574 106.572C83.8874 106.252 92.3274 110.832 94.0174 118.832C97.1674 133.762 82.3874 140.802 70.5474 143.102C70.1684 143.177 69.8185 143.359 69.5386 143.626C69.2588 143.893 69.0606 144.236 68.9674 144.612C66.0474 156.326 63.0174 168.092 59.8774 179.912C59.5108 181.299 59.9274 182.362 61.1274 183.102C76.6374 192.632 98.4874 192.272 115.257 186.032C128.604 181.066 141.131 175.186 152.837 168.392C162.711 162.666 172.844 157.006 183.237 151.412C197.507 143.722 213.947 137.572 230.357 134.532C243.397 132.112 255.701 130.579 267.267 129.932C267.403 129.926 267.539 129.955 267.66 130.018C267.781 130.08 267.883 130.173 267.957 130.287C268.03 130.4 268.071 130.531 268.077 130.666C268.082 130.8 268.051 130.934 267.987 131.052L260.047 146.012C259.914 146.266 259.714 146.479 259.47 146.629C259.225 146.778 258.944 146.859 258.657 146.862C228.667 147.162 199.077 154.662 172.857 169.272C166.604 172.752 160.174 176.316 153.567 179.962C139.617 187.662 125.467 193.452 110.327 197.582C90.6774 202.932 71.4574 201.792 53.4674 191.342C53.2261 191.202 52.9493 191.135 52.6705 191.149C52.3918 191.163 52.1232 191.258 51.8974 191.422C44.9774 196.549 37.7107 196.839 30.0974 192.292C25.9974 189.846 23.3707 186.009 22.2174 180.782C20.3174 172.182 23.8574 165.272 29.9274 159.582C30.213 159.318 30.4332 158.991 30.5703 158.627C30.7074 158.262 30.7578 157.87 30.7174 157.482C29.6774 147.049 30.5007 136.136 33.1874 124.742C37.9807 104.429 42.8274 84.4422 47.7274 64.7822C48.0874 63.3355 47.5241 62.6789 46.0374 62.8122C45.8774 62.8255 45.7274 62.8689 45.5874 62.9422C44.2074 63.6489 43.2641 64.7022 42.7574 66.1022C41.3374 70.0522 40.6774 74.3722 39.6274 78.5722C36.2074 92.3055 32.9541 105.109 29.8674 116.982C29.7815 117.319 29.6117 117.629 29.3739 117.882C29.1361 118.136 28.838 118.325 28.5074 118.432L19.8174 121.272C19.673 121.32 19.5155 121.309 19.3776 121.242C19.2398 121.175 19.1322 121.057 19.0774 120.912C18.9707 120.612 18.9541 120.306 19.0274 119.992C23.2741 102.179 27.4107 84.9689 31.4374 68.3622C31.5022 68.0947 31.4843 67.8139 31.3861 67.5568C31.2879 67.2996 31.114 67.0784 30.8874 66.9222C30.3074 66.5155 29.7707 66.4389 29.2774 66.6922C27.7441 67.4989 26.7508 68.8022 26.2974 70.6022C21.8307 88.3422 17.5208 105.696 13.3674 122.662C13.2787 123.016 13.1005 123.341 12.8499 123.606C12.5994 123.871 12.2851 124.066 11.9374 124.172L2.79742 126.962C2.69292 126.993 2.58205 126.997 2.47598 126.971C2.3699 126.946 2.27239 126.893 2.19328 126.818C2.11416 126.743 2.05624 126.648 2.02537 126.544C1.99449 126.439 1.99175 126.328 2.01742 126.222C6.37075 108.762 10.5274 91.6255 14.4874 74.8122C14.8474 73.2655 15.0708 71.6055 15.1574 69.8322C15.164 69.6897 15.1354 69.5478 15.0742 69.4189C15.013 69.29 14.9211 69.1782 14.8065 69.0932C14.6919 69.0083 14.5581 68.9528 14.4171 68.9317C14.276 68.9106 14.1319 68.9245 13.9974 68.9722C12.9774 69.3389 12.0774 69.9555 11.2974 70.8222C9.60408 72.6955 8.87742 72.3755 9.11742 69.8622C9.70742 63.5522 14.6674 57.4522 21.5974 60.0022C21.9147 60.1197 22.2577 60.1483 22.5892 60.0848C22.9207 60.0213 23.2279 59.8682 23.4774 59.6422C26.3174 57.0922 32.2374 54.1422 35.8574 56.6722C36.7174 57.2722 37.7774 57.0422 38.5174 56.3822C47.0774 48.7022 61.3274 51.8422 58.2174 65.6322C54.1174 83.7655 49.8708 101.576 45.4774 119.062C42.6874 130.172 40.9974 140.762 41.7174 151.902C41.7841 152.942 42.3207 153.332 43.3274 153.072C47.0074 152.119 50.5941 151.829 54.0874 152.202C55.0608 152.309 55.6808 151.886 55.9474 150.932L57.6474 144.742C57.9141 143.756 57.5441 143.169 56.5374 142.982C54.6874 142.652 50.5374 141.612 50.5174 139.102C50.4874 135.092 55.9874 135.772 58.6674 135.752C59.0105 135.747 59.3425 135.631 59.6131 135.422C59.8838 135.213 60.0783 134.921 60.1674 134.592C61.1207 131.019 62.2974 127.126 63.6974 122.912C64.8974 119.322 68.8574 118.242 72.2474 119.052C72.8079 119.183 73.3122 119.488 73.6877 119.923C74.0633 120.358 74.2908 120.901 74.3374 121.472C74.6574 125.212 72.9074 129.322 71.4574 132.682C71.4141 132.787 71.4027 132.903 71.4246 133.015C71.4466 133.127 71.501 133.229 71.5809 133.31C71.6609 133.391 71.7629 133.447 71.8743 133.471C71.9857 133.494 72.1016 133.484 72.2074 133.442ZM53.0074 162.292C53.0619 162.101 53.0665 161.898 53.0209 161.704C52.9752 161.51 52.8808 161.331 52.7466 161.184C52.6124 161.037 52.4429 160.926 52.254 160.863C52.0652 160.8 51.8632 160.786 51.6674 160.822L44.7674 162.112C44.5847 162.146 44.4126 162.223 44.2654 162.336C44.1182 162.449 44.0002 162.596 43.921 162.764C43.8419 162.932 43.8039 163.117 43.8102 163.303C43.8165 163.488 43.867 163.67 43.9574 163.832L48.3374 171.622C48.4506 171.825 48.6215 171.99 48.8285 172.095C49.0355 172.2 49.2691 172.242 49.4997 172.214C49.7303 172.186 49.9473 172.09 50.1232 171.938C50.2991 171.787 50.4259 171.586 50.4874 171.362L53.0074 162.292ZM37.4474 183.702C38.9741 184.416 40.5808 184.679 42.2674 184.492C42.4147 184.476 42.5549 184.42 42.673 184.331C42.791 184.241 42.8826 184.121 42.938 183.984C42.9934 183.846 43.0105 183.696 42.9875 183.55C42.9645 183.403 42.9023 183.266 42.8074 183.152C39.5208 179.206 36.8774 175.262 34.8774 171.322C34.8157 171.198 34.7203 171.094 34.6022 171.021C34.4841 170.949 34.3479 170.911 34.2093 170.912C34.0707 170.913 33.9351 170.953 33.8181 171.027C33.7011 171.101 33.6073 171.207 33.5474 171.332C30.7541 177.052 32.0541 181.176 37.4474 183.702Z" fill="black"/>
<path d="M118.927 136.982C118.694 136.909 118.481 136.952 118.287 137.112C116.697 138.442 113.317 141.212 113.427 143.322C114.117 156.492 106.657 171.002 91.5275 169.462C85.1275 168.812 82.0875 162.062 81.8975 156.162C81.8921 156.007 81.8474 155.857 81.7676 155.724C81.6878 155.592 81.5755 155.482 81.4414 155.405C81.3073 155.328 81.1558 155.286 81.0011 155.284C80.8464 155.282 80.6938 155.319 80.5575 155.392C77.9375 156.812 75.1708 157.915 72.2575 158.702C70.8441 159.082 70.3175 158.565 70.6775 157.152L71.8575 152.492C72.1575 151.312 72.8975 150.565 74.0775 150.252C78.2875 149.132 82.4175 146.902 84.5275 142.902C88.9775 134.472 98.6275 126.822 108.077 133.072C108.404 133.292 108.764 133.372 109.157 133.312C110.311 133.145 111.351 132.565 112.277 131.572C116.017 127.522 120.657 120.422 127.167 125.012C127.453 125.211 127.804 125.293 128.146 125.241C128.489 125.189 128.798 125.007 129.007 124.732C132.157 120.592 137.357 116.752 142.697 119.382C142.984 119.522 143.307 119.568 143.621 119.514C143.935 119.46 144.224 119.309 144.447 119.082C148.267 115.192 154.437 111.602 159.627 114.022C162.494 115.362 163.604 117.935 162.957 121.742C162.191 126.255 160.997 131.395 159.377 137.162C159.184 137.835 159.121 138.502 159.187 139.162C159.2 139.292 159.246 139.416 159.322 139.522C159.398 139.628 159.5 139.712 159.619 139.766C159.738 139.82 159.868 139.841 159.998 139.828C160.128 139.815 160.252 139.768 160.357 139.692C162.227 138.352 165.567 135.352 164.867 132.852C164.347 131.005 164.104 129.245 164.137 127.572C164.257 121.092 166.577 115.329 171.097 110.282C175.337 105.552 182.687 102.132 188.847 104.802C189.214 104.962 189.541 104.909 189.827 104.642C190.254 104.255 190.571 103.782 190.777 103.222C191.044 102.502 191.551 102.035 192.297 101.822L200.817 99.452C200.901 99.4293 200.988 99.4284 201.071 99.4495C201.155 99.4705 201.232 99.5128 201.294 99.5721C201.356 99.6314 201.402 99.7059 201.427 99.7882C201.453 99.8705 201.456 99.9579 201.437 100.042C199.671 107.882 197.904 115.625 196.137 123.272C196.071 123.559 196.047 123.849 196.067 124.142C196.114 124.842 196.424 124.992 196.998 124.592C200.058 122.472 201.484 119.475 201.277 115.602C200.737 105.672 205.597 97.282 214.457 93.082C217.197 91.782 220.757 91.762 223.557 92.922C223.721 92.9887 223.898 93.0191 224.075 93.0108C224.252 93.0025 224.425 92.9558 224.582 92.874C224.739 92.7921 224.876 92.6771 224.984 92.5369C225.092 92.3967 225.168 92.2346 225.207 92.062C226.967 84.4153 225.097 78.1286 219.597 73.202C219.449 73.0708 219.357 72.8874 219.34 72.69C219.323 72.4926 219.383 72.2963 219.507 72.142L224.707 65.602C224.851 65.4204 225.053 65.2943 225.279 65.2451C225.505 65.1958 225.741 65.2265 225.947 65.332C235.797 70.312 238.817 81.052 236.837 91.182C235.891 96.0086 234.924 101.035 233.937 106.262C233.611 107.962 233.637 109.649 234.017 111.322C234.324 112.689 235.171 113.305 236.557 113.172C237.197 113.112 237.781 112.939 238.307 112.652C239.501 112.005 239.797 111.075 239.197 109.862C234.457 100.272 238.707 89.512 246.397 82.832C251.697 78.232 262.137 76.762 264.637 85.152C266.557 91.602 262.427 100.052 258.557 105.592C258.444 105.753 258.393 105.95 258.415 106.147C258.437 106.344 258.531 106.527 258.677 106.662C258.937 106.895 259.211 106.905 259.497 106.692C260.764 105.759 262.074 104.822 263.427 103.882C263.643 103.735 263.905 103.671 264.164 103.703C264.424 103.734 264.663 103.858 264.837 104.052L268.697 108.352C268.894 108.572 268.994 108.862 268.977 109.158C268.961 109.453 268.828 109.732 268.607 109.932C262.927 115.059 256.931 117.402 250.617 116.962C249.537 116.882 248.137 117.152 247.267 117.842C241.617 122.292 235.577 125.232 228.437 122.372C228.108 122.241 227.744 122.224 227.405 122.326C227.065 122.428 226.77 122.641 226.567 122.932C221.637 129.942 214.177 133.902 206.337 128.702C205.944 128.449 205.601 128.499 205.307 128.852C201.097 133.872 196.607 139.892 189.407 137.162C189.174 137.075 188.921 137.055 188.677 137.104C188.433 137.154 188.208 137.271 188.027 137.442C183.437 141.772 177.277 144.012 171.777 141.082C171.547 140.959 171.284 140.912 171.024 140.946C170.764 140.98 170.521 141.094 170.327 141.272C167.507 143.879 164.617 146.125 161.657 148.012C158.297 150.162 149.777 152.922 148.297 147.192C147.804 145.292 147.817 143.225 148.337 140.992C149.591 135.625 150.784 130.415 151.917 125.362C152.124 124.442 151.761 124.049 150.827 124.182C149.401 124.389 148.261 125.559 147.407 127.692C147.334 127.878 147.274 128.069 147.227 128.262L140.827 153.032C140.711 153.476 140.485 153.883 140.17 154.215C139.856 154.548 139.462 154.794 139.027 154.932L130.647 157.572C130.034 157.765 129.677 157.545 129.577 156.912C129.537 156.645 129.551 156.379 129.617 156.112C131.791 147.699 133.917 139.275 135.997 130.842C136.045 130.646 136.052 130.443 136.02 130.245C135.987 130.048 135.915 129.859 135.807 129.692C135.387 129.032 134.874 128.949 134.267 129.442C132.421 130.942 131.201 132.835 130.607 135.122C128.634 142.775 126.494 150.829 124.187 159.282C124.121 159.529 123.991 159.755 123.811 159.939C123.63 160.123 123.406 160.258 123.157 160.332L114.077 163.072C113.962 163.108 113.839 163.112 113.721 163.084C113.604 163.056 113.496 162.997 113.408 162.913C113.32 162.828 113.257 162.721 113.223 162.603C113.19 162.486 113.188 162.361 113.217 162.242L119.417 137.832C119.531 137.392 119.367 137.109 118.927 136.982ZM249.207 103.052L255.027 91.532C255.042 91.504 255.044 91.4717 255.035 91.4418C255.026 91.4119 255.005 91.3868 254.977 91.372L254.927 91.352C254.002 90.8851 252.81 91.0421 251.612 91.7883C250.414 92.5346 249.308 93.8091 248.537 95.332L248.417 95.572C248.036 96.3271 247.749 97.1203 247.573 97.9064C247.396 98.6925 247.333 99.4561 247.388 100.153C247.443 100.851 247.614 101.468 247.892 101.971C248.17 102.473 248.549 102.851 249.007 103.082L249.047 103.102C249.075 103.116 249.108 103.119 249.138 103.11C249.168 103.1 249.193 103.08 249.207 103.052ZM214.16 119.2C215.448 119.621 216.976 119.129 218.408 117.833C219.84 116.537 221.058 114.543 221.795 112.29C222.159 111.174 222.395 110.028 222.488 108.917C222.581 107.806 222.529 106.752 222.336 105.816C222.143 104.879 221.812 104.078 221.362 103.459C220.912 102.839 220.353 102.413 219.715 102.204C218.427 101.783 216.899 102.275 215.467 103.571C214.035 104.867 212.817 106.861 212.08 109.114C211.716 110.23 211.48 111.376 211.387 112.487C211.294 113.598 211.346 114.652 211.539 115.588C211.732 116.525 212.063 117.326 212.513 117.945C212.962 118.565 213.522 118.991 214.16 119.2ZM177.408 131.208C178.688 131.705 180.262 131.29 181.783 130.056C183.304 128.821 184.647 126.868 185.517 124.625C185.948 123.515 186.249 122.367 186.404 121.247C186.56 120.126 186.566 119.056 186.422 118.097C186.278 117.138 185.987 116.309 185.566 115.656C185.145 115.004 184.602 114.542 183.967 114.296C182.687 113.799 181.113 114.213 179.592 115.448C178.071 116.683 176.728 118.636 175.858 120.879C175.427 121.989 175.126 123.137 174.971 124.257C174.815 125.377 174.809 126.448 174.953 127.407C175.097 128.366 175.388 129.195 175.809 129.848C176.23 130.5 176.773 130.962 177.408 131.208ZM94.6747 159.243C96.0537 159.667 97.663 159.141 99.1488 157.781C100.634 156.422 101.875 154.339 102.597 151.992C103.319 149.644 103.464 147.225 102.999 145.265C102.535 143.305 101.499 141.966 100.12 141.541C98.7413 141.117 97.1319 141.643 95.6462 143.003C94.1605 144.362 92.9201 146.445 92.198 148.792C91.4759 151.14 91.3311 153.559 91.7956 155.519C92.2601 157.479 93.2957 158.818 94.6747 159.243Z" fill="black"/>
</svg>
