<svg width="292" height="106" viewBox="0 0 292 106" fill="none" xmlns="http://www.w3.org/2000/svg">
<g clip-path="url(#clip0_695_677)">
<path d="M130.294 86.7795C135.348 86.3678 136.291 80.7511 136.291 76.7322C136.298 51.7429 136.301 26.4073 136.301 0.725366C136.301 0.535586 136.378 0.353578 136.513 0.219383C136.649 0.0851884 136.834 0.00979689 137.026 0.00979689H152.426C152.783 0.00979689 152.962 0.182969 152.962 0.529316C153.028 28.407 153.008 54.9319 152.902 80.1042C152.889 83.8944 152.399 87.9101 151.433 92.1512C149.05 102.591 141.325 105.355 131.208 105.914C121.457 106.453 108.57 104.708 105.839 93.847C104.39 88.1028 104.002 82.1921 104.002 76.3009C103.996 51.7691 104.002 26.4923 104.022 0.470505C104.022 0.163367 104.181 0.00979689 104.499 0.00979689L120.385 0C120.493 0 120.597 0.0423426 120.673 0.117712C120.749 0.193082 120.792 0.295301 120.792 0.401889C120.852 24.0973 120.888 49.936 120.901 77.9183C120.901 83.8094 123.364 87.3579 130.294 86.7795Z" fill="black"/>
<path d="M271.528 86.3337C271.579 86.4097 271.649 86.4721 271.73 86.5152C271.811 86.5584 271.901 86.5811 271.993 86.5814L291.318 86.5913C291.496 86.5913 291.667 86.6612 291.793 86.7857C291.919 86.9102 291.99 87.079 291.99 87.2551L292 105.515C292 105.635 291.952 105.751 291.867 105.837C291.782 105.922 291.666 105.97 291.545 105.97L255.702 106C255.234 106 255 105.766 255 105.297L255.04 0.643979C255.04 0.473184 255.107 0.309385 255.228 0.188615C255.348 0.067844 255.512 0 255.682 0L270.727 0.00990203C271.123 0.00990203 271.32 0.20805 271.32 0.604349C271.353 29.1907 271.373 57.5987 271.38 85.8284C271.38 86.0133 271.429 86.1818 271.528 86.3337Z" fill="black"/>
<path d="M16.3686 65.3606C16.2266 65.3606 16.0903 65.4158 15.9898 65.5142C15.8894 65.6125 15.8329 65.7459 15.8329 65.885L15.823 104.991C15.823 105.179 15.7478 105.361 15.6138 105.494C15.4799 105.628 15.2982 105.703 15.1087 105.703L0.992039 105.683C0.728934 105.683 0.476605 105.58 0.290562 105.396C0.104518 105.213 0 104.963 0 104.704V0.646477C0 0.237478 0.205021 0.0329841 0.615064 0.0329841C10.1982 -0.0329833 19.5762 -1.12061e-06 28.7493 0.131934C36.1102 0.230885 40.0288 8.36467 42.5684 13.995C49.2646 28.808 47.2111 42.7799 39.3939 56.1779C37.4891 59.4334 38.1042 63.3519 39.1954 66.8547C43.0049 79.0389 46.93 91.7113 50.9709 104.872C51.0009 104.973 51.0078 105.079 50.9912 105.182C50.9745 105.286 50.9347 105.385 50.8748 105.471C50.8148 105.558 50.7362 105.63 50.6446 105.682C50.5531 105.734 50.4511 105.765 50.346 105.772C45.1874 106.109 40.4289 106.072 36.0705 105.663C33.6698 105.446 32.5686 103.031 32.0032 100.983C28.6699 88.8846 25.5218 77.1654 22.559 65.8256C22.5272 65.7117 22.459 65.6108 22.3644 65.5378C22.2698 65.4648 22.1537 65.4235 22.0332 65.4199L16.3686 65.3606ZM15.9619 20.1201L16.0016 45.8078C16.0016 46.0492 16.0977 46.2808 16.2689 46.4515C16.4401 46.6222 16.6722 46.7182 16.9143 46.7182L23.4022 46.7083C24.3767 46.7071 25.3411 46.3803 26.2405 45.7466C27.1398 45.1129 27.9564 44.1847 28.6436 43.015C29.3308 41.8453 29.8752 40.457 30.2457 38.9294C30.6161 37.4017 30.8055 35.7647 30.8028 34.1118V31.7765C30.7974 28.4385 30.0105 25.2382 28.6152 22.8796C27.2199 20.521 25.3305 19.1974 23.3625 19.1998L16.8746 19.2097C16.6325 19.2097 16.4004 19.3056 16.2292 19.4764C16.0581 19.6471 15.9619 19.8786 15.9619 20.1201Z" fill="black"/>
<path d="M73.2284 86.7055H97.5072C97.6352 86.7055 97.758 86.7559 97.8485 86.8456C97.9391 86.9354 97.9899 87.057 97.9899 87.1839L98 105.512C98 105.639 97.9491 105.76 97.8586 105.85C97.7681 105.94 97.6453 105.99 97.5172 105.99L56.4828 106C56.3547 106 56.2319 105.95 56.1414 105.86C56.0509 105.77 56 105.649 56 105.522V0.488339C56 0.361466 56.0509 0.239792 56.1414 0.150079C56.2319 0.0603665 56.3547 0.00996828 56.4828 0.00996828L97.296 0C97.3594 0 97.4222 0.0123729 97.4807 0.0364135C97.5393 0.0604541 97.5925 0.0956897 97.6373 0.140111C97.6822 0.184532 97.7177 0.237268 97.742 0.295308C97.7662 0.353347 97.7787 0.415558 97.7787 0.478379V18.2181C97.7787 18.2809 97.7662 18.3432 97.742 18.4012C97.7177 18.4592 97.6822 18.512 97.6373 18.5564C97.5925 18.6008 97.5393 18.6361 97.4807 18.6601C97.4222 18.6841 97.3594 18.6965 97.296 18.6965L73.2486 18.6865C73.1205 18.6865 72.9977 18.7369 72.9072 18.8266C72.8167 18.9164 72.7658 19.038 72.7658 19.1649L72.7457 41.6087C72.7457 41.6715 72.7582 41.7337 72.7824 41.7918C72.8067 41.8498 72.8423 41.9025 72.8871 41.947C72.9319 41.9914 72.9851 42.0266 73.0437 42.0507C73.1023 42.0747 73.165 42.0871 73.2284 42.0871H95.4756C95.6036 42.0871 95.7264 42.1375 95.8169 42.2272C95.9075 42.3169 95.9583 42.4386 95.9583 42.5654L95.9885 60.4547C95.9885 60.5816 95.9376 60.7032 95.8471 60.7929C95.7566 60.8827 95.6338 60.9331 95.5057 60.9331L73.2385 60.953C73.1105 60.953 72.9877 61.0034 72.8971 61.0931C72.8066 61.1828 72.7558 61.3045 72.7558 61.4314L72.7457 86.2272C72.7457 86.354 72.7966 86.4757 72.8871 86.5654C72.9776 86.6551 73.1004 86.7055 73.2284 86.7055Z" fill="black"/>
<path d="M179.155 86.2816L200.103 86.2916C200.237 86.2916 200.365 86.3452 200.459 86.4407C200.554 86.5362 200.607 86.6657 200.607 86.8008L200.617 105.521C200.617 105.584 200.604 105.646 200.58 105.704C200.557 105.762 200.522 105.815 200.478 105.86C200.434 105.904 200.381 105.939 200.324 105.964C200.266 105.988 200.205 106 200.143 106H158.425C158.368 106 158.312 105.989 158.26 105.967C158.208 105.945 158.161 105.914 158.121 105.874C158.081 105.834 158.05 105.786 158.03 105.734C158.009 105.682 157.999 105.627 158 105.571C158.069 98.8814 158.059 92.6314 160.025 86.042C160.881 83.1866 161.76 80.3678 162.662 77.5856C168.884 58.3431 175.211 39.1439 181.644 19.9879C181.671 19.9058 181.677 19.8185 181.664 19.7331C181.651 19.6477 181.618 19.5667 181.568 19.4967C181.518 19.4267 181.452 19.3695 181.376 19.33C181.3 19.2904 181.216 19.2696 181.131 19.2691L160.173 19.2791C159.653 19.2791 159.393 19.0128 159.393 18.4804L159.403 0.71885C159.403 0.5282 159.477 0.345358 159.611 0.210548C159.744 0.0757378 159.925 1.36946e-06 160.114 1.36946e-06H200.33C200.435 -0.000269903 200.536 0.0397698 200.613 0.112042C200.69 0.184315 200.737 0.283435 200.745 0.389376C201.417 9.74437 200.883 17.9113 197.673 27.1964C191.636 44.6817 185.302 64.1538 178.671 85.6127C178.648 85.6906 178.643 85.7731 178.656 85.8532C178.67 85.9334 178.701 86.0092 178.748 86.0743C178.795 86.1394 178.857 86.1921 178.927 86.2281C178.998 86.2642 179.076 86.2825 179.155 86.2816Z" fill="black"/>
<path d="M223.742 19.1649V41.6186C223.742 41.7455 223.793 41.8672 223.883 41.9569C223.974 42.0466 224.096 42.097 224.224 42.097L246.476 42.0771C246.604 42.0771 246.727 42.1275 246.817 42.2172C246.908 42.3069 246.959 42.4286 246.959 42.5555L246.969 60.4547C246.969 60.5816 246.918 60.7032 246.828 60.7929C246.737 60.8827 246.614 60.9331 246.486 60.9331L224.224 60.953C224.096 60.953 223.974 61.0034 223.883 61.0931C223.793 61.1828 223.742 61.3045 223.742 61.4314V86.2272C223.742 86.354 223.793 86.4757 223.883 86.5654C223.974 86.6551 224.096 86.7055 224.224 86.7055H248.517C248.645 86.7055 248.768 86.7559 248.859 86.8456C248.949 86.9354 249 87.057 249 87.1839V105.512C249 105.639 248.949 105.76 248.859 105.85C248.768 105.94 248.645 105.99 248.517 105.99L207.493 106C207.429 106 207.367 105.988 207.308 105.964C207.249 105.94 207.196 105.904 207.151 105.86C207.107 105.815 207.071 105.763 207.047 105.705C207.023 105.647 207.01 105.584 207.01 105.522L207 0.488339C207 0.361466 207.051 0.239792 207.141 0.150079C207.232 0.0603665 207.355 0.00996828 207.483 0.00996828L248.296 0C248.36 0 248.422 0.0123729 248.481 0.0364135C248.539 0.0604541 248.593 0.0956897 248.637 0.140111C248.682 0.184532 248.718 0.237268 248.742 0.295308C248.766 0.353347 248.779 0.415558 248.779 0.478379L248.799 18.2181C248.799 18.2809 248.786 18.3432 248.762 18.4012C248.738 18.4592 248.702 18.512 248.658 18.5564C248.613 18.6008 248.56 18.6361 248.501 18.6601C248.442 18.6841 248.38 18.6965 248.316 18.6965L224.224 18.6865C224.096 18.6865 223.974 18.7369 223.883 18.8266C223.793 18.9164 223.742 19.038 223.742 19.1649Z" fill="black"/>
</g>
<defs>
<clipPath id="clip0_695_677">
<rect width="292" height="106" fill="white"/>
</clipPath>
</defs>
</svg>
