<?xml version="1.0" encoding="UTF-8" standalone="no"?>
<!DOCTYPE svg PUBLIC "-//W3C//DTD SVG 1.1//EN" "http://www.w3.org/Graphics/SVG/1.1/DTD/svg11.dtd">
<svg xmlns="http://www.w3.org/2000/svg" version="1.1" viewBox="0.00 0.00 50.00 50.00">
<path fill="#c1bebe" d="
  M 47.94 24.99
  A 22.95 22.95 0.0 0 1 24.99 47.94
  A 22.95 22.95 0.0 0 1 2.04 24.99
  A 22.95 22.95 0.0 0 1 24.99 2.04
  A 22.95 22.95 0.0 0 1 47.94 24.99
  Z
  M 46.00 24.99
  A 21.01 21.01 0.0 0 0 24.99 3.98
  A 21.01 21.01 0.0 0 0 3.98 24.99
  A 21.01 21.01 0.0 0 0 24.99 46.00
  A 21.01 21.01 0.0 0 0 46.00 24.99
  Z"
/>
<path fill="#c1bebe" d="
  M 21.99 34.50
  L 21.93 37.41
  A 0.59 0.59 0.0 0 1 21.34 37.99
  L 20.75 37.99
  Q 20.01 37.98 20.01 37.25
  L 20.00 34.75
  A 0.80 0.79 -1.4 0 0 19.16 33.96
  Q 18.10 34.02 17.23 33.55
  Q 16.54 33.18 17.09 32.63
  Q 17.88 31.83 19.12 32.01
  Q 20.01 32.13 20.16 31.25
  L 20.24 30.83
  Q 20.38 29.96 19.51 30.05
  Q 18.51 30.15 17.63 29.73
  Q 16.43 29.16 17.49 28.34
  Q 18.30 27.71 19.23 28.03
  A 0.59 0.58 -80.3 0 0 20.01 27.47
  L 20.00 13.55
  Q 19.99 13.00 20.55 12.99
  C 24.37 12.98 29.01 12.35 32.00 15.14
  Q 36.85 19.67 33.72 25.57
  C 31.29 30.12 26.80 30.25 22.24 29.97
  A 0.55 0.54 76.1 0 0 21.74 30.80
  Q 21.82 30.93 21.85 31.07
  Q 22.08 31.96 23.00 31.98
  L 25.42 32.05
  A 0.61 0.61 0.0 0 1 26.01 32.68
  L 25.99 33.07
  Q 25.96 33.99 25.04 33.99
  L 22.50 33.99
  Q 21.99 33.99 21.99 34.50
  Z
  M 21.97 15.44
  L 22.03 27.58
  A 0.45 0.45 0.0 0 0 22.48 28.03
  L 26.41 28.01
  A 6.60 6.41 -0.3 0 0 32.98 21.56
  L 32.98 21.34
  A 6.60 6.41 -0.3 0 0 26.35 14.97
  L 22.42 14.99
  A 0.45 0.45 0.0 0 0 21.97 15.44
  Z"
/>
</svg>
