<svg width="288" height="120" viewBox="0 0 288 120" fill="none" xmlns="http://www.w3.org/2000/svg">
<g clip-path="url(#clip0_696_721)">
<path d="M71.7513 26.9605C68.1979 32.8205 64.8479 39.1205 61.7013 45.8605C60.6713 48.0605 62.2113 50.2205 64.5613 50.2305C75.0746 50.2572 85.3279 50.2505 95.3213 50.2105C95.7413 50.2105 95.9479 50.4172 95.9413 50.8305C95.8946 61.0705 95.9046 71.1038 95.9713 80.9305C95.9779 82.1438 95.7213 83.2405 95.2013 84.2205C90.7679 92.5205 86.4579 100.637 82.2713 108.571C78.0913 116.511 71.5513 120.171 62.8613 120.131C46.2346 120.037 29.6113 120.034 12.9913 120.121C6.79126 120.154 2.75126 117.804 0.871264 113.071C-0.778736 108.911 0.071264 105.011 2.11126 100.641C4.95793 94.5472 8.00126 88.4105 11.2413 82.2305C11.3946 81.9438 11.6313 81.8005 11.9513 81.8005H41.9613C42.5146 81.8005 42.6379 82.0305 42.3313 82.4905C41.3379 83.9838 40.4079 85.4372 39.5413 86.8505C36.8113 91.3205 40.7413 93.6305 44.5613 93.7805C48.9313 93.9405 57.3913 94.8705 60.2013 90.8205C62.8746 86.9605 64.8979 83.2538 66.2713 79.7005C67.4013 76.8105 64.6913 75.5405 62.2913 75.5605C56.1446 75.5938 49.7479 75.5972 43.1013 75.5705C40.3946 75.5572 37.2179 74.4205 33.5713 72.1605C29.3779 69.5539 26.8746 65.7838 26.0613 60.8505C25.4513 57.1405 26.5713 53.9605 28.2213 50.7505C34.8146 37.9239 42.1079 24.4538 50.1013 10.3405C53.6513 4.08052 58.9913 0.0205211 66.5713 0.0405211C84.2513 0.0805211 101.341 0.0671869 117.841 0.000520199C122.951 -0.0294798 126.701 1.23052 129.581 5.75052C131.835 9.29719 132.065 13.0405 130.271 16.9805C126.838 24.5072 123.161 32.0705 119.241 39.6705C119.165 39.8125 119.052 39.9312 118.912 40.0139C118.773 40.0967 118.614 40.1405 118.451 40.1405L88.5413 40.1505C88.4716 40.1508 88.4029 40.1333 88.3419 40.0997C88.2808 40.066 88.2293 40.0174 88.1923 39.9583C88.1553 39.8993 88.1339 39.8318 88.1302 39.7622C88.1265 39.6926 88.1407 39.6231 88.1713 39.5605L93.0413 29.6405C93.2143 29.2871 93.2945 28.8955 93.2745 28.5025C93.2545 28.1095 93.1349 27.7281 92.9269 27.3941C92.7188 27.0601 92.4293 26.7845 92.0855 26.5932C91.7416 26.4019 91.3548 26.3012 90.9613 26.3005L72.9013 26.3105C72.3946 26.3105 72.0113 26.5272 71.7513 26.9605Z" fill="black"/>
<path d="M144.511 36.4208C146.805 37.7075 149.011 39.4108 151.131 41.5308C153.161 43.5608 155.861 44.1308 158.501 42.8308C158.668 42.7441 158.798 42.7841 158.891 42.9508L159.021 43.1808C159.048 43.2274 159.038 43.2675 158.991 43.3008C156.931 45.0275 154.608 45.7675 152.021 45.5208C148.271 45.1708 145.221 42.0208 142.711 39.3708C142.514 39.164 142.25 39.0343 141.966 39.005C141.682 38.9757 141.396 39.0486 141.161 39.2108C138.781 40.8408 135.661 42.0908 132.801 41.2308C132.481 41.1374 132.235 40.9475 132.061 40.6608C129.741 36.9308 138.671 35.4208 140.661 35.4708C141.115 35.4775 141.378 35.2575 141.451 34.8108C143.085 25.3641 148.068 17.9241 156.401 12.4908C157.875 11.5375 159.658 11.0574 161.751 11.0508C161.964 11.0517 162.174 11.1019 162.364 11.1974C162.554 11.2929 162.72 11.4311 162.847 11.601C162.974 11.7709 163.06 11.9677 163.097 12.176C163.134 12.3843 163.122 12.5982 163.061 12.8008C162.368 15.1341 161.051 16.8941 159.111 18.0808C159.011 18.1408 158.908 18.1375 158.801 18.0708C158.501 17.8775 158.455 17.6341 158.661 17.3408C159.671 15.9108 158.871 14.2908 157.151 14.5208C153.251 15.0208 150.761 20.1608 149.641 23.4008C148.281 27.3341 146.485 31.3775 144.251 35.5308C144.045 35.9108 144.131 36.2075 144.511 36.4208Z" fill="black"/>
<path d="M166.581 34.7805C167.201 34.5205 167.678 34.0305 168.011 33.3105C168.025 33.2705 168.051 33.2605 168.091 33.2805L168.391 33.4705C168.605 33.6038 168.628 33.7638 168.461 33.9505L165.381 37.4005C165.276 37.5167 165.142 37.604 164.993 37.6539C164.844 37.7039 164.685 37.7148 164.53 37.6858C164.376 37.6567 164.231 37.5886 164.111 37.4878C163.99 37.3871 163.897 37.2572 163.841 37.1105C162.981 34.8405 165.521 29.7405 166.221 27.4605C166.308 27.1738 166.221 26.9505 165.961 26.7905L165.611 26.5805C165.566 26.5521 165.514 26.535 165.46 26.5305C165.406 26.5261 165.352 26.5345 165.303 26.555C165.253 26.5755 165.209 26.6075 165.174 26.6485C165.139 26.6894 165.114 26.7381 165.101 26.7905C164.895 27.5571 164.491 28.1638 163.891 28.6105C163.238 29.0838 163.031 28.9371 163.271 28.1705L163.371 27.8605C163.505 27.4471 163.368 27.1638 162.961 27.0105C162.248 26.7438 161.565 26.7438 160.911 27.0105C160.727 27.0849 160.566 27.2065 160.444 27.3631C160.322 27.5197 160.243 27.7057 160.215 27.9024C160.188 28.0991 160.213 28.2996 160.288 28.4836C160.363 28.6676 160.484 28.8286 160.641 28.9505L162.701 30.5505C163.581 31.2371 163.795 32.0871 163.341 33.1005C162.355 35.3271 160.841 36.8171 158.801 37.5705C158.552 37.6615 158.284 37.6894 158.021 37.6517C157.758 37.6141 157.509 37.512 157.295 37.3546C157.081 37.1972 156.91 36.9894 156.796 36.7496C156.681 36.5099 156.628 36.2457 156.641 35.9805C156.701 34.8205 157.218 33.8371 158.191 33.0305C158.731 32.5838 158.901 32.6938 158.701 33.3605L158.431 34.2405C158.258 34.8338 158.481 35.1271 159.101 35.1205L160.591 35.0805C160.851 35.0743 161.103 34.9852 161.309 34.8261C161.514 34.6669 161.664 34.4462 161.736 34.196C161.807 33.9458 161.797 33.6793 161.706 33.4355C161.615 33.1916 161.449 32.9831 161.231 32.8405L159.461 31.6905C158.946 31.3544 158.576 30.8377 158.424 30.243C158.272 29.6483 158.35 29.0191 158.641 28.4805C159.691 26.5505 163.241 23.2605 165.391 25.8005C165.625 26.0671 165.838 26.0505 166.031 25.7505C166.965 24.3038 168.081 22.9971 169.381 21.8305C170.408 20.9171 170.678 21.1038 170.191 22.3905L169.371 24.5305C169.165 25.0838 169.355 25.3305 169.941 25.2705C170.268 25.2438 170.595 25.2438 170.921 25.2705C171.521 25.3238 171.555 25.4871 171.021 25.7605C170.501 26.0271 169.971 26.2205 169.431 26.3405C169.018 26.4338 168.741 26.6805 168.601 27.0805L166.071 34.2905C165.885 34.8305 166.055 34.9938 166.581 34.7805Z" fill="black"/>
<path d="M186.491 23.3607L185.371 25.0507C185.178 25.344 184.968 25.3607 184.741 25.1007C184.115 24.4007 183.718 23.664 183.551 22.8907C183.512 22.7208 183.523 22.5422 183.584 22.3758C183.644 22.2094 183.75 22.062 183.891 21.9507C184.605 21.404 185.385 21.424 186.231 22.0107C186.441 22.1582 186.585 22.3814 186.634 22.6332C186.682 22.885 186.631 23.1458 186.491 23.3607Z" fill="black"/>
<path d="M152.591 33.6704C151.558 34.6571 150.535 35.7504 149.521 36.9504C149.228 37.3037 148.881 37.4937 148.481 37.5204C148.31 37.528 148.14 37.4938 147.985 37.4206C147.831 37.3474 147.696 37.2375 147.594 37.1005C147.491 36.9634 147.424 36.8034 147.397 36.6343C147.371 36.4653 147.386 36.2923 147.441 36.1304L149.901 29.1304C150.021 28.7771 150.031 28.4204 149.931 28.0604C149.585 26.8604 150.078 25.8871 151.411 25.1404C152.765 24.3804 153.271 24.7571 152.931 26.2704C152.411 28.5837 151.565 30.9271 150.391 33.3004C149.625 34.8537 149.848 35.0104 151.061 33.7704C153.235 31.5371 154.795 29.0437 155.741 26.2904C155.955 25.6771 156.371 25.2837 156.991 25.1104L157.591 24.9504C157.677 24.9263 157.767 24.9263 157.852 24.9505C157.938 24.9746 158.015 25.022 158.075 25.0872C158.135 25.1525 158.176 25.2331 158.193 25.3202C158.21 25.4072 158.202 25.4973 158.171 25.5804L154.681 34.5004C154.65 34.5825 154.64 34.6708 154.651 34.7578C154.662 34.8448 154.694 34.9278 154.744 34.9997C154.794 35.0715 154.861 35.1301 154.939 35.1703C155.017 35.2105 155.104 35.2311 155.191 35.2304C155.311 35.2304 155.431 35.2537 155.551 35.3004C156.105 35.5071 156.131 35.7704 155.631 36.0904L153.301 37.5804C153.172 37.663 153.022 37.7071 152.868 37.7077C152.715 37.7082 152.564 37.665 152.434 37.5833C152.304 37.5015 152.2 37.3845 152.134 37.2459C152.068 37.1073 152.043 36.9528 152.061 36.8004C152.175 35.8204 152.455 34.8504 152.901 33.8904C153.181 33.2771 153.078 33.2037 152.591 33.6704Z" fill="black"/>
<path d="M180.791 26.3904C181.205 26.2304 181.518 25.9104 181.731 25.4304C182.158 24.4571 182.688 24.4004 183.321 25.2604C183.901 26.0537 183.788 27.0271 182.981 28.1804C182.741 28.5204 182.511 28.5137 182.291 28.1604C182.238 28.0804 182.208 27.9904 182.201 27.8904C182.188 27.6437 182.061 27.5471 181.821 27.6004C181.315 27.7204 180.935 27.9904 180.681 28.4104C179.768 29.9171 178.975 31.7137 178.301 33.8004C177.961 34.8471 178.318 35.3904 179.371 35.4304C179.417 35.43 179.462 35.4448 179.499 35.4724C179.536 35.5 179.563 35.539 179.575 35.5834C179.588 35.6277 179.585 35.6749 179.568 35.7178C179.551 35.7606 179.521 35.7967 179.481 35.8204L176.771 37.4704C176.425 37.6837 176.105 37.6471 175.811 37.3604C175.585 37.1471 175.525 36.8771 175.631 36.5504C176.391 34.0904 177.101 31.5504 177.761 28.9304C178.171 27.2804 177.521 26.1304 179.451 25.0904C179.818 24.8971 180.088 24.9871 180.261 25.3604C180.348 25.5471 180.365 25.7404 180.311 25.9404C180.165 26.4204 180.325 26.5704 180.791 26.3904Z" fill="black"/>
<path d="M186.151 35.0704C186.858 35.1504 187.501 34.9838 188.081 34.5705C188.267 34.4384 188.411 34.257 188.499 34.0469C188.587 33.8368 188.614 33.6064 188.578 33.3817C188.541 33.1569 188.443 32.9468 188.293 32.7752C188.144 32.6036 187.949 32.4772 187.731 32.4105C186.258 31.9638 185.465 31.0971 185.351 29.8105C185.141 27.4105 188.001 25.4205 189.961 24.7705C190.161 24.7056 190.373 24.6873 190.581 24.7169C190.789 24.7465 190.987 24.8232 191.16 24.9412C191.333 25.0591 191.477 25.2151 191.579 25.3971C191.682 25.579 191.741 25.782 191.751 25.9905C191.805 27.0438 191.451 27.9105 190.691 28.5905C190.238 28.9838 189.998 28.8805 189.971 28.2805C189.965 28.1405 189.975 28.0038 190.001 27.8705C190.031 27.7243 190.027 27.5732 189.988 27.429C189.95 27.2849 189.878 27.1518 189.779 27.0401C189.68 26.9285 189.556 26.8415 189.418 26.786C189.279 26.7305 189.13 26.7081 188.981 26.7205C187.601 26.8405 186.978 27.4838 187.111 28.6505C187.145 28.9305 187.288 29.1238 187.541 29.2305C189.151 29.9205 190.921 31.0305 190.051 33.1505C189.171 35.2605 186.931 37.8504 184.391 37.1004C183.485 36.8338 183.198 36.2571 183.531 35.3705C183.891 34.4105 184.438 33.5805 185.171 32.8805C185.611 32.4605 185.761 32.5471 185.621 33.1405C185.508 33.6005 185.491 34.0638 185.571 34.5305C185.631 34.8505 185.825 35.0304 186.151 35.0704Z" fill="black"/>
<path fill-rule="evenodd" clip-rule="evenodd" d="M173.901 33.2207C173.688 34.6473 172.948 35.3573 171.681 35.3507C171.321 35.3507 171.108 35.1707 171.041 34.8107C170.635 32.5907 171.371 30.944 173.251 29.8707C174.665 29.0573 175.911 28.0173 176.991 26.7507C177.132 26.5885 177.224 26.3903 177.257 26.1786C177.291 25.9668 177.264 25.7499 177.181 25.5523C177.098 25.3547 176.961 25.1843 176.786 25.0603C176.611 24.9363 176.405 24.8637 176.191 24.8507C175.385 24.7973 174.645 25.014 173.971 25.5007C170.785 27.774 169.011 30.974 168.651 35.1007C168.571 35.9607 168.798 36.6907 169.331 37.2907C169.499 37.4754 169.725 37.5978 169.97 37.6377C170.215 37.6777 170.466 37.6329 170.681 37.5107C172.361 36.544 173.671 35.2807 174.611 33.7207C174.641 33.6731 174.659 33.6194 174.664 33.5636C174.669 33.5078 174.661 33.4513 174.641 33.3983C174.621 33.3454 174.589 33.2974 174.547 33.258C174.506 33.2186 174.456 33.1887 174.401 33.1707L174.131 33.0807C173.998 33.034 173.921 33.0807 173.901 33.2207ZM172.359 28.496C172.276 28.7915 172.309 29.029 172.451 29.1563C172.594 29.2836 172.834 29.2902 173.118 29.1747C173.402 29.0592 173.708 28.8311 173.968 28.5404C174.228 28.2498 174.42 27.9205 174.504 27.625C174.587 27.3295 174.553 27.092 174.411 26.9647C174.269 26.8375 174.029 26.8308 173.745 26.9463C173.46 27.0618 173.154 27.29 172.895 27.5806C172.635 27.8713 172.442 28.2005 172.359 28.496Z" fill="black"/>
<path fill-rule="evenodd" clip-rule="evenodd" d="M275.351 58.186C275.648 57.4677 275.801 56.6979 275.801 55.9205C275.801 55.1431 275.648 54.3732 275.351 53.655C275.053 52.9368 274.617 52.2841 274.067 51.7344C273.518 51.1847 272.865 50.7486 272.147 50.4511C271.429 50.1536 270.659 50.0005 269.881 50.0005C268.311 50.0005 266.805 50.6242 265.695 51.7344C264.585 52.8446 263.961 54.3504 263.961 55.9205C263.961 57.4906 264.585 58.9963 265.695 60.1066C266.805 61.2168 268.311 61.8405 269.881 61.8405C270.659 61.8405 271.429 61.6873 272.147 61.3898C272.865 61.0923 273.518 60.6563 274.067 60.1066C274.617 59.5568 275.053 58.9042 275.351 58.186ZM273.396 59.4247C274.328 58.4927 274.851 57.2286 274.851 55.9104C274.851 54.5923 274.328 53.3282 273.396 52.3961C272.464 51.4641 271.199 50.9404 269.881 50.9404C268.563 50.9404 267.299 51.4641 266.367 52.3961C265.435 53.3282 264.911 54.5923 264.911 55.9104C264.911 57.2286 265.435 58.4927 266.367 59.4247C267.299 60.3568 268.563 60.8804 269.881 60.8804C271.199 60.8804 272.464 60.3568 273.396 59.4247ZM271.021 56.9905L272.251 58.3105C272.291 58.3532 272.322 58.4039 272.341 58.4592C272.35 58.4851 272.357 58.5117 272.361 58.5387C272.365 58.5694 272.366 58.6005 272.364 58.6316C272.359 58.69 272.342 58.7467 272.314 58.7982C272.286 58.8497 272.248 58.8948 272.201 58.9305L271.991 59.0905C271.871 59.1839 271.765 59.1738 271.671 59.0605L269.921 56.9805C269.081 55.9805 268.545 56.1239 268.311 57.4105C268.245 57.7772 268.275 58.1572 268.401 58.5505C268.426 58.6185 268.429 58.6918 268.411 58.7616C268.394 58.8313 268.355 58.8944 268.301 58.9432C268.247 58.992 268.179 59.0244 268.107 59.0363C268.034 59.0483 267.959 59.0393 267.891 59.0105C267.451 58.8105 267.231 58.4672 267.231 57.9805C267.231 56.5272 267.218 55.1305 267.191 53.7905C267.178 53.3505 267.385 53.0738 267.811 52.9605C269.091 52.6005 270.345 52.7405 271.571 53.3805C271.783 53.4924 271.962 53.6583 272.089 53.8614C272.216 54.0646 272.288 54.2977 272.296 54.5373C272.304 54.7769 272.249 55.0143 272.135 55.2256C272.022 55.437 271.855 55.6145 271.651 55.7405L271.151 56.0405C270.725 56.3005 270.681 56.6172 271.021 56.9905ZM268.821 55.4705C269.561 55.7971 270.288 55.6771 271.001 55.1105C271.441 54.7571 271.421 54.4271 270.941 54.1205C270.295 53.7138 269.591 53.5638 268.831 53.6705C268.491 53.7238 268.288 53.9171 268.221 54.2505C268.108 54.8305 268.308 55.2371 268.821 55.4705Z" fill="black"/>
<path fill-rule="evenodd" clip-rule="evenodd" d="M288.081 93.1006L261.521 93.0706C261.431 93.0706 261.345 93.0348 261.281 92.971C261.217 92.9073 261.181 92.8208 261.181 92.7306L261.191 50.4806C261.191 50.3904 261.155 50.304 261.092 50.2402C261.028 50.1764 260.941 50.1406 260.851 50.1406L247.361 50.1206C247.271 50.1206 247.185 50.1564 247.121 50.2202C247.057 50.2839 247.021 50.3704 247.021 50.4606V109.001C247.021 109.091 247.057 109.177 247.121 109.241C247.185 109.305 247.271 109.341 247.361 109.341L288.081 109.351C288.171 109.351 288.258 109.315 288.322 109.251C288.385 109.187 288.421 109.101 288.421 109.011V93.4406C288.421 93.3504 288.385 93.264 288.322 93.2002C288.258 93.1364 288.171 93.1006 288.081 93.1006ZM179.361 93.0804H162.231C162.149 93.0804 162.07 93.0477 162.012 92.9896C161.954 92.9314 161.921 92.8526 161.921 92.7704L161.931 50.4404C161.931 50.3997 161.923 50.3593 161.908 50.3217C161.892 50.2841 161.869 50.2499 161.841 50.2212C161.812 50.1924 161.778 50.1695 161.74 50.154C161.702 50.1384 161.662 50.1304 161.621 50.1304L148.801 50.1504C148.719 50.1504 148.64 50.183 148.582 50.2412C148.524 50.2993 148.491 50.3781 148.491 50.4604V109.04C148.491 109.123 148.524 109.201 148.582 109.26C148.64 109.318 148.719 109.35 148.801 109.35H193.641C193.724 109.35 193.802 109.318 193.861 109.26C193.919 109.201 193.951 109.123 193.951 109.04L193.931 50.4504C193.931 50.3681 193.899 50.2893 193.841 50.2312C193.782 50.173 193.704 50.1404 193.621 50.1404H179.991C179.909 50.1404 179.83 50.173 179.772 50.2312C179.714 50.2893 179.681 50.3681 179.681 50.4504L179.671 92.7704C179.671 92.8526 179.639 92.9314 179.581 92.9896C179.522 93.0477 179.444 93.0804 179.361 93.0804ZM130.901 84.1606L130.941 92.7406C130.941 92.7826 130.933 92.8243 130.917 92.8631C130.901 92.9019 130.877 92.9372 130.848 92.9669C130.818 92.9966 130.783 93.0202 130.744 93.0363C130.705 93.0524 130.663 93.0606 130.621 93.0606L113.401 93.1006C113.316 93.1006 113.235 93.0669 113.175 93.0069C113.115 92.9469 113.081 92.8655 113.081 92.7806L113.121 66.6606C113.121 66.5758 113.155 66.4944 113.215 66.4343C113.275 66.3743 113.356 66.3406 113.441 66.3406H130.561C130.603 66.3406 130.645 66.3489 130.684 66.365C130.723 66.3811 130.758 66.4046 130.788 66.4343C130.817 66.4641 130.841 66.4993 130.857 66.5382C130.873 66.577 130.881 66.6186 130.881 66.6606L130.871 73.1206C130.871 73.1626 130.88 73.2043 130.896 73.2431C130.912 73.2819 130.935 73.3172 130.965 73.3469C130.995 73.3766 131.03 73.4002 131.069 73.4163C131.108 73.4323 131.149 73.4406 131.191 73.4406L144.021 73.4606C144.106 73.4606 144.188 73.4269 144.248 73.3669C144.308 73.3069 144.341 73.2255 144.341 73.1406L144.331 50.4606C144.331 50.3757 144.298 50.2944 144.238 50.2343C144.178 50.1743 144.096 50.1406 144.011 50.1406H99.9113C99.8264 50.1406 99.745 50.1743 99.685 50.2343C99.625 50.2944 99.5913 50.3757 99.5913 50.4606L99.6013 109.011C99.6013 109.095 99.635 109.177 99.695 109.237C99.755 109.297 99.8364 109.331 99.9213 109.331L144.031 109.351C144.116 109.351 144.198 109.317 144.258 109.257C144.318 109.197 144.351 109.115 144.351 109.031L144.321 84.1506C144.321 84.0658 144.288 83.9844 144.228 83.9243C144.168 83.8643 144.086 83.8306 144.001 83.8306L131.221 83.8406C131.179 83.8406 131.138 83.8489 131.099 83.865C131.06 83.8811 131.025 83.9046 130.995 83.9343C130.965 83.9641 130.942 83.9993 130.926 84.0382C130.91 84.077 130.901 84.1186 130.901 84.1606ZM237.081 92.1606C236.475 92.154 236.305 92.424 236.571 92.9706L244.291 108.791C244.319 108.846 244.332 108.908 244.328 108.97C244.325 109.031 244.306 109.091 244.273 109.144C244.24 109.196 244.193 109.239 244.139 109.268C244.084 109.297 244.023 109.312 243.961 109.311H228.991C228.698 109.311 228.498 109.174 228.391 108.901C226.178 103.301 223.561 98.0106 220.541 93.0306C220.235 92.5306 219.788 92.2773 219.201 92.2706L211.281 92.2606C211.13 92.2606 210.985 92.3207 210.878 92.4276C210.771 92.5345 210.711 92.6795 210.711 92.8306L210.721 108.801C210.721 109.161 210.541 109.341 210.181 109.341L197.951 109.361C197.598 109.367 197.421 109.194 197.421 108.841V50.7206C197.421 50.334 197.618 50.1406 198.011 50.1406H243.301C243.391 50.1406 243.478 50.1754 243.542 50.2373C243.605 50.2992 243.641 50.3831 243.641 50.4706V91.5406C243.641 92.014 243.408 92.2473 242.941 92.2406L237.081 92.1606ZM108.211 61.3404V99.1104C108.211 99.1953 108.245 99.2767 108.305 99.3367C108.365 99.3967 108.446 99.4304 108.531 99.4304H134.611C134.696 99.4304 134.777 99.3967 134.838 99.3367C134.898 99.2767 134.931 99.1953 134.931 99.1104L134.921 88.1204C134.921 88.0355 134.955 87.9541 135.015 87.8941C135.075 87.8341 135.156 87.8004 135.241 87.8004L139.141 87.8104C139.226 87.8104 139.307 87.8441 139.368 87.9041C139.428 87.9641 139.461 88.0455 139.461 88.1304L139.441 103.62C139.441 103.662 139.433 103.704 139.417 103.743C139.401 103.782 139.377 103.817 139.347 103.847C139.318 103.876 139.283 103.9 139.244 103.916C139.205 103.932 139.163 103.94 139.121 103.94L103.951 103.95C103.866 103.95 103.785 103.917 103.725 103.857C103.665 103.797 103.631 103.715 103.631 103.63L103.661 55.2204C103.661 55.1355 103.695 55.0541 103.755 54.9941C103.815 54.9341 103.896 54.9004 103.981 54.9004L139.121 54.9204C139.163 54.9204 139.205 54.9287 139.244 54.9447C139.283 54.9608 139.318 54.9844 139.347 55.0141C139.377 55.0438 139.401 55.0791 139.417 55.1179C139.433 55.1568 139.441 55.1984 139.441 55.2404V67.6104C139.441 67.6936 139.409 67.7735 139.351 67.8332C139.293 67.8929 139.214 67.9278 139.131 67.9304L135.241 68.0004C135.198 68.0017 135.156 67.9945 135.116 67.979C135.076 67.9635 135.039 67.9401 135.008 67.9103C134.978 67.8804 134.953 67.8447 134.937 67.8052C134.92 67.7657 134.911 67.7233 134.911 67.6804L134.931 61.3404C134.931 61.2555 134.898 61.1741 134.838 61.1141C134.777 61.0541 134.696 61.0204 134.611 61.0204H108.531C108.446 61.0204 108.365 61.0541 108.305 61.1141C108.245 61.1741 108.211 61.2555 108.211 61.3404ZM184.301 97.8804L158.241 97.9104C158.156 97.9104 158.075 97.8766 158.015 97.8166C157.955 97.7566 157.921 97.6752 157.921 97.5903V55.2103C157.921 55.1255 157.888 55.0441 157.828 54.9841C157.768 54.9241 157.686 54.8904 157.601 54.8904L152.901 54.8604C152.816 54.8604 152.735 54.8941 152.675 54.9541C152.615 55.0141 152.581 55.0955 152.581 55.1803V103.61C152.581 103.695 152.615 103.777 152.675 103.837C152.735 103.897 152.816 103.93 152.901 103.93L188.851 103.96C188.936 103.96 189.018 103.927 189.078 103.867C189.138 103.807 189.171 103.725 189.171 103.64V55.2103C189.171 55.1255 189.138 55.0441 189.078 54.9841C189.018 54.9241 188.936 54.8904 188.851 54.8904L184.941 54.8703C184.856 54.8703 184.775 54.9041 184.715 54.9641C184.655 55.0241 184.621 55.1055 184.621 55.1904V97.5603C184.621 97.6452 184.588 97.7266 184.528 97.7866C184.468 97.8466 184.386 97.8804 184.301 97.8804ZM228.441 87.3306C228.441 88.3373 228.708 89.3173 229.241 90.2706C231.735 94.7173 234.048 99.014 236.181 103.161C236.228 103.252 236.251 103.354 236.246 103.456C236.242 103.558 236.211 103.658 236.156 103.745C236.102 103.831 236.026 103.902 235.935 103.951C235.845 103.999 235.744 104.023 235.641 104.021L232.691 103.971C232.165 103.964 231.755 103.741 231.461 103.301C228.275 98.5073 225.558 93.194 223.311 87.3606C223.165 86.9806 222.888 86.7906 222.481 86.7906H207.181C206.848 86.7906 206.681 86.9606 206.681 87.3006L206.691 103.521C206.691 103.648 206.641 103.77 206.551 103.86C206.461 103.95 206.339 104.001 206.211 104.001L201.861 103.941C201.568 103.934 201.421 103.787 201.421 103.501V55.1106C201.421 54.9773 201.488 54.9106 201.621 54.9106L237.371 54.9406C237.522 54.9406 237.667 55.0007 237.774 55.1076C237.881 55.2145 237.941 55.3595 237.941 55.5106L237.951 86.2906C237.951 86.6306 237.781 86.8006 237.441 86.8006L228.971 86.7906C228.618 86.7906 228.441 86.9706 228.441 87.3306ZM283.271 99.4307L256.031 99.4407C255.928 99.4407 255.829 99.3997 255.755 99.3265C255.682 99.2534 255.641 99.1542 255.641 99.0507V55.3007C255.641 55.199 255.602 55.1013 255.531 55.0284C255.46 54.9556 255.363 54.9134 255.261 54.9107L252.201 54.8707C252.149 54.8694 252.097 54.8785 252.049 54.8975C252 54.9165 251.956 54.945 251.919 54.9814C251.882 55.0177 251.852 55.0612 251.832 55.1091C251.812 55.1571 251.801 55.2087 251.801 55.2607L251.791 103.631C251.791 103.682 251.801 103.733 251.821 103.78C251.841 103.827 251.869 103.87 251.905 103.907C251.942 103.943 251.985 103.971 252.032 103.991C252.079 104.011 252.13 104.021 252.181 104.021L283.261 104.001C283.365 104.001 283.464 103.96 283.537 103.887C283.61 103.813 283.651 103.714 283.651 103.611L283.661 99.8207C283.661 99.7173 283.62 99.6181 283.547 99.545C283.474 99.4718 283.375 99.4307 283.271 99.4307ZM233.961 80.9803C233.961 81.0546 233.932 81.1258 233.879 81.1783C233.827 81.2308 233.756 81.2603 233.681 81.2603H207.261C207.187 81.2603 207.116 81.2308 207.063 81.1783C207.011 81.1258 206.981 81.0546 206.981 80.9803V60.6003C206.981 60.5261 207.011 60.4548 207.063 60.4023C207.116 60.3498 207.187 60.3203 207.261 60.3203H233.681C233.756 60.3203 233.827 60.3498 233.879 60.4023C233.932 60.4548 233.961 60.5261 233.961 60.6003V80.9803ZM229.079 75.7078C229.144 75.6422 229.181 75.5531 229.181 75.4603V65.4203C229.181 65.3275 229.144 65.2385 229.079 65.1728C229.013 65.1072 228.924 65.0703 228.831 65.0703H211.371C211.278 65.0703 211.189 65.1072 211.124 65.1728C211.058 65.2385 211.021 65.3275 211.021 65.4203V75.4603C211.021 75.5531 211.058 75.6422 211.124 75.7078C211.189 75.7734 211.278 75.8103 211.371 75.8103H228.831C228.924 75.8103 229.013 75.7734 229.079 75.7078Z" fill="black"/>
</g>
<defs>
<clipPath id="clip0_696_721">
<rect width="288" height="120" fill="white"/>
</clipPath>
</defs>
</svg>
