<?xml version="1.0" encoding="UTF-8" standalone="no"?>
<!DOCTYPE svg PUBLIC "-//W3C//DTD SVG 1.1//EN" "http://www.w3.org/Graphics/SVG/1.1/DTD/svg11.dtd">
<svg xmlns="http://www.w3.org/2000/svg" version="1.1" viewBox="0.00 0.00 50.00 50.00">
<path fill="#babeb9" d="
  M 50.00 24.79
  L 50.00 35.74
  Q 48.70 38.32 45.44 38.03
  A 0.67 0.66 -78.1 0 0 44.76 38.48
  C 42.82 44.38 35.51 44.49 33.29 38.67
  Q 33.14 38.28 32.75 38.12
  Q 30.91 37.37 29.37 37.68
  C 26.30 38.29 22.70 38.02 19.64 37.96
  Q 19.10 37.95 18.88 38.44
  Q 16.04 44.77 10.27 42.25
  Q 8.07 41.29 7.32 38.66
  Q 7.17 38.12 6.60 38.07
  C 3.94 37.81 0.72 38.76 0.00 35.11
  L 0.00 11.77
  L 0.52 9.97
  Q 1.09 7.99 3.15 8.00
  L 28.60 8.06
  Q 30.16 8.07 30.48 9.60
  L 31.10 12.58
  A 0.84 0.83 80.3 0 0 32.02 13.24
  Q 36.56 12.66 40.81 13.21
  C 43.00 13.50 43.86 15.31 45.17 16.78
  Q 48.41 20.45 50.00 24.79
  Z
  M 7.28 35.44
  C 9.07 29.74 16.99 29.45 18.68 35.34
  A 0.91 0.90 81.9 0 0 19.55 36.00
  L 27.99 36.01
  A 1.01 1.00 0.0 0 0 29.00 35.01
  L 29.00 11.24
  A 1.26 1.26 0.0 0 0 27.74 9.98
  L 2.70 9.99
  A 0.81 0.81 0.0 0 0 1.89 10.80
  L 2.00 35.11
  A 0.89 0.89 0.0 0 0 2.89 36.00
  L 6.52 36.00
  Q 7.11 36.00 7.28 35.44
  Z
  M 35.06 20.09
  Q 35.07 17.24 37.91 17.07
  L 41.96 16.83
  Q 43.02 16.76 42.18 16.10
  C 40.03 14.40 35.13 14.95 32.42 15.01
  Q 31.09 15.04 31.07 16.37
  Q 30.94 25.88 31.02 34.68
  Q 31.02 35.25 31.37 35.63
  Q 31.90 36.20 32.72 36.01
  Q 33.13 35.92 33.25 35.51
  C 35.08 29.42 42.45 29.63 44.79 35.52
  Q 44.97 35.95 45.43 36.03
  Q 46.93 36.29 47.69 35.53
  Q 48.00 35.22 48.00 34.78
  L 48.01 27.50
  Q 48.01 27.00 47.50 27.00
  L 38.20 26.99
  Q 35.03 26.99 35.04 23.82
  L 35.06 20.09
  Z
  M 46.84 25.06
  A 0.97 0.97 0.0 0 0 47.63 23.52
  L 44.66 19.44
  A 0.97 0.97 0.0 0 0 43.88 19.04
  L 38.10 19.05
  A 0.97 0.97 0.0 0 0 37.13 20.00
  L 37.03 23.97
  A 0.97 0.97 0.0 0 0 37.99 24.96
  L 46.84 25.06
  Z
  M 17.00 37.00
  A 4.01 4.01 0.0 0 0 12.99 32.99
  A 4.01 4.01 0.0 0 0 8.98 37.00
  A 4.01 4.01 0.0 0 0 12.99 41.01
  A 4.01 4.01 0.0 0 0 17.00 37.00
  Z
  M 43.00 37.00
  A 4.01 4.01 0.0 0 0 38.99 32.99
  A 4.01 4.01 0.0 0 0 34.98 37.00
  A 4.01 4.01 0.0 0 0 38.99 41.01
  A 4.01 4.01 0.0 0 0 43.00 37.00
  Z"
/>
<path fill="#babeb9" d="
  M 6.35 23.88
  Q 6.20 24.53 6.28 25.23
  Q 6.34 25.84 5.73 25.88
  Q 5.57 25.89 5.42 25.80
  Q 5.18 25.66 5.14 25.39
  Q 4.81 22.98 5.25 20.67
  Q 5.37 20.02 6.03 20.02
  L 8.42 20.01
  Q 8.84 20.01 8.90 20.43
  Q 8.92 20.60 8.81 20.72
  Q 8.64 20.91 8.39 20.95
  Q 7.74 21.05 7.06 21.05
  Q 6.66 21.05 6.40 21.36
  Q 6.24 21.54 6.26 21.80
  Q 6.30 22.32 6.82 22.36
  L 8.27 22.47
  A 0.35 0.35 0.0 0 1 8.59 22.77
  L 8.64 23.06
  Q 8.69 23.36 8.38 23.37
  L 6.98 23.38
  Q 6.47 23.39 6.35 23.88
  Z"
/>
<path fill="#babeb9" d="
  M 11.19 23.80
  L 10.98 25.31
  Q 10.93 25.63 10.60 25.68
  Q 10.43 25.71 10.26 25.62
  Q 10.11 25.55 10.10 25.37
  L 9.96 20.88
  Q 9.93 19.93 10.88 19.97
  L 13.54 20.07
  A 1.02 1.02 0.0 0 1 14.50 21.29
  Q 14.12 23.21 14.59 25.20
  Q 14.69 25.60 14.27 25.63
  L 13.93 25.66
  A 0.40 0.39 87.3 0 1 13.51 25.27
  Q 13.48 23.55 11.99 23.24
  Q 11.29 23.09 11.19 23.80
  Z
  M 13.5191 21.8372
  A 1.23 0.88 2.2 0 0 12.3238 20.9106
  A 1.23 0.88 2.2 0 0 11.0609 21.7428
  A 1.23 0.88 2.2 0 0 12.2562 22.6694
  A 1.23 0.88 2.2 0 0 13.5191 21.8372
  Z"
/>
<path fill="#babeb9" d="
  M 17.44 21.07
  Q 17.18 21.08 17.18 21.34
  L 17.17 21.68
  A 0.67 0.66 -85.6 0 0 17.74 22.35
  Q 18.54 22.45 19.30 22.20
  Q 19.82 22.03 19.75 22.57
  L 19.69 23.01
  Q 19.67 23.19 19.50 23.22
  Q 18.76 23.36 18.07 23.22
  Q 17.63 23.14 17.40 23.52
  Q 17.14 23.94 17.29 24.40
  Q 17.44 24.90 17.96 24.79
  Q 19.04 24.55 19.96 24.85
  Q 21.06 25.20 19.96 25.54
  Q 18.55 25.97 16.83 25.86
  A 0.86 0.86 0.0 0 1 16.01 25.00
  L 16.00 20.86
  Q 16.00 19.98 16.89 19.99
  L 19.91 20.03
  Q 20.17 20.03 20.17 20.29
  L 20.17 20.65
  Q 20.18 20.97 19.85 20.98
  L 17.44 21.07
  Z"
/>
<path fill="#babeb9" d="
  M 23.25 22.39
  L 25.24 22.32
  Q 25.71 22.30 25.57 22.75
  L 25.44 23.18
  Q 25.37 23.41 25.14 23.36
  Q 24.24 23.17 23.37 23.30
  A 0.52 0.51 86.7 0 0 22.93 23.80
  L 22.92 24.25
  Q 22.91 24.85 23.50 24.79
  L 25.32 24.64
  A 0.35 0.35 0.0 0 1 25.69 24.88
  L 25.86 25.35
  A 0.35 0.35 0.0 0 1 25.53 25.82
  L 22.62 25.77
  Q 21.74 25.75 21.73 24.87
  L 21.73 20.50
  Q 21.72 19.97 22.25 19.98
  L 25.50 20.05
  Q 25.70 20.05 25.73 20.25
  L 25.78 20.72
  Q 25.81 20.99 25.53 21.00
  L 23.33 21.05
  A 0.43 0.43 0.0 0 0 22.90 21.44
  L 22.85 21.96
  Q 22.80 22.41 23.25 22.39
  Z"
/>
</svg>
